<?xml version="1.0" standalone="no"?>
<!DOCTYPE svg PUBLIC "-//W3C//DTD SVG 1.1//EN" "http://www.w3.org/Graphics/SVG/1.1/DTD/svg11.dtd" >
<svg xmlns="http://www.w3.org/2000/svg" xmlns:xlink="http://www.w3.org/1999/xlink" version="1.1">
<metadata></metadata>
<defs>
<font id="blogger_sansitalic" horiz-adv-x="1024" >
<font-face units-per-em="2048" ascent="1556" descent="-492" />
<missing-glyph horiz-adv-x="614" />
<glyph horiz-adv-x="0" />
<glyph horiz-adv-x="682" />
<glyph unicode=" "  horiz-adv-x="614" />
<glyph unicode="&#x09;" horiz-adv-x="614" />
<glyph unicode="&#xa0;" horiz-adv-x="614" />
<glyph unicode="!" horiz-adv-x="464" d="M137 80q0 49 38 85t89 36q41 0 67.5 -28.5t26.5 -68.5q0 -51 -37.5 -87.5t-87.5 -36.5q-41 0 -68.5 29t-27.5 71zM227 414l117 968q5 33 33 57.5t61 24.5t54 -24.5t16 -57.5l-156 -968q-5 -27 -25.5 -46.5t-45.5 -19.5q-26 0 -41.5 19.5t-12.5 46.5z" />
<glyph unicode="&#x22;" horiz-adv-x="700" d="M254 993l131 498q7 29 37.5 47.5t64.5 13.5q35 -6 52.5 -31.5t5.5 -54.5l-183 -493q-9 -23 -30 -37.5t-43 -11.5q-22 4 -31.5 24.5t-3.5 44.5zM520 993l131 498q7 29 38 47.5t65 13.5q35 -6 52 -31.5t5 -54.5l-182 -493q-9 -23 -30.5 -37.5t-43.5 -11.5q-22 4 -31.5 24.5 t-3.5 44.5z" />
<glyph unicode="#" horiz-adv-x="1107" d="M156 63l6 19l137 379h-68q-30 0 -49.5 19.5t-19.5 49.5q0 37 28.5 64t63.5 27h102l76 208h-88q-30 0 -50 20t-20 50q0 37 29.5 63.5t63.5 26.5h122l152 412q22 57 84 57q24 -3 40.5 -21t16.5 -44q0 -9 -6 -27l-137 -377h219l152 412q22 57 84 57q25 -3 41 -21t16 -44 q0 -9 -6 -27l-137 -377h71q28 0 49 -20.5t21 -50.5q0 -36 -27.5 -62.5t-64.5 -26.5h-107l-76 -208h93q28 0 48.5 -21t20.5 -51q0 -36 -27.5 -62t-64.5 -26h-127l-149 -416q-24 -59 -86 -59q-28 3 -45 25t-13 52l6 19l138 379h-219l-150 -416q-24 -59 -86 -59q-27 3 -44 25 t-13 52zM506 621h219l76 208h-219z" />
<glyph unicode="$" d="M127 184q0 33 26.5 60.5t61.5 27.5q20 0 56 -16.5t93 -34t125 -20.5l66 467q-56 19 -93 34.5t-82.5 43t-72 58.5t-45 78.5t-18.5 106.5q0 178 111.5 287.5t301.5 124.5l15 100q3 22 21 37.5t40 15.5t35 -15.5t10 -37.5l-14 -100q49 -3 93 -11t89 -22t71.5 -38.5 t26.5 -57.5q0 -34 -26 -60t-66 -26q-26 0 -87.5 25t-123.5 30l-61 -440q46 -17 77 -29.5t71 -33.5t66 -44t50 -54.5t35.5 -72.5t11.5 -90q0 -179 -116.5 -292.5t-301.5 -139.5l-14 -102q-3 -22 -20 -38t-39 -16t-36 16t-11 38l14 98q-55 2 -111 10.5t-109 24.5t-86.5 44 t-33.5 64zM418 1022q0 -107 96 -156q18 -10 64 -30l57 403q-217 -30 -217 -217zM596 207q107 17 163 78.5t56 160.5q0 112 -94 156q-44 22 -66 29z" />
<glyph unicode="%" horiz-adv-x="1439" d="M268 1085q0 161 92 271t248 110q120 0 184 -76t64 -198q0 -161 -92.5 -271t-247.5 -110q-119 0 -183.5 76t-64.5 198zM316 34q-10 27 1 56l13 16l874 1324q17 24 42.5 33t51.5 1q18 -6 28.5 -24t10.5 -41q0 -28 -16 -39l-877 -1325q-36 -54 -92 -37q-26 9 -36 36z M408 1094q0 -75 32 -115.5t95 -40.5q91 0 136.5 68t45.5 182q0 72 -32 111.5t-95 39.5q-91 0 -136.5 -66t-45.5 -179zM788 254q0 161 92 271t248 110q119 0 182.5 -76.5t63.5 -198.5q0 -161 -91.5 -270.5t-246.5 -109.5q-120 0 -184 76t-64 198zM928 262q0 -156 125 -156 q91 0 136.5 68t45.5 182q0 152 -125 152q-91 0 -136.5 -66.5t-45.5 -179.5z" />
<glyph unicode="&#x26;" horiz-adv-x="1314" d="M143 322q0 72 22.5 136.5t56.5 112t86.5 93.5t99.5 76.5t108 64.5q-125 159 -125 299q0 157 120 256.5t277 99.5q125 0 211 -74.5t86 -171.5q0 -42 -29 -70t-63 -28q-27 0 -43.5 17.5t-19.5 44.5q-8 56 -49.5 96.5t-106.5 40.5q-87 0 -154 -55t-67 -140q0 -39 22 -89 t43 -82t60 -85l317 -436q73 94 156 238q20 34 36 42.5t44 8.5q26 0 45.5 -20.5t19.5 -49.5q0 -98 -215 -346l133 -190q16 -22 13 -50q-5 -33 -31 -57t-59 -24q-23 0 -37 10t-29 33l-108 155q-102 -91 -210.5 -144.5t-236.5 -53.5q-169 0 -271 96t-102 246zM305 352 q0 -94 60 -159.5t159 -65.5t184.5 45t170.5 127l-285 389q-61 -32 -105 -60.5t-90 -70t-70 -93.5t-24 -112z" />
<glyph unicode="'" horiz-adv-x="454" d="M254 993l131 498q7 29 37.5 47.5t64.5 13.5q35 -6 52.5 -31.5t5.5 -54.5l-183 -493q-9 -23 -30 -37.5t-43 -11.5q-22 4 -31.5 24.5t-3.5 44.5z" />
<glyph unicode="(" horiz-adv-x="565" d="M177.5 141.5q-0.5 152.5 19.5 311.5q34 243 124 477t236 428q29 39 74 39q33 0 50 -21t17 -53q0 -25 -30 -68q-247 -350 -310 -802q-63 -451 84 -803q13 -35 13 -49q0 -34 -24.5 -63.5t-65.5 -29.5q-45 0 -62 39q-62 131 -93.5 286.5t-32 308z" />
<glyph unicode=")" horiz-adv-x="563" d="M-6 -418q0 27 29 68q245 348 309 803q66 448 -82 802q-14 37 -14 50q0 34 24.5 63t65.5 29q46 0 63 -39q92 -195 117 -438.5t-12 -466.5q-34 -242 -124.5 -477t-236.5 -429q-29 -39 -72 -39q-33 0 -50 21t-17 53z" />
<glyph unicode="*" horiz-adv-x="1013" d="M117 1219q11 34 40 45t56 0q30 -11 109.5 -43t123.5 -47l-12 249q-2 30 17 53t55 23t55 -23t17 -53l-13 -249q44 15 124.5 47t109.5 43q27 11 56 0t40 -45q11 -32 -6 -57.5t-47 -35.5l-238 -65l154 -195q21 -22 19 -53t-32 -51q-33 -20 -59 -13.5t-43 31.5l-137 211 q-22 -33 -68 -105.5t-69 -105.5q-19 -24 -45 -30t-58 12q-28 19 -29.5 50.5t17.5 53.5l156 195l-240 65q-30 10 -46.5 35.5t-6.5 57.5z" />
<glyph unicode="+" d="M106 725q0 33 24.5 56.5t55.5 23.5h328v348q0 31 23.5 55.5t56.5 24.5q34 0 57 -23t23 -57v-348h327q31 0 55.5 -23.5t24.5 -56.5q0 -34 -23 -57t-57 -23h-327v-348q0 -34 -23 -57t-57 -23q-33 0 -56.5 24.5t-23.5 55.5v348h-328q-34 0 -57 23t-23 57z" />
<glyph unicode="," horiz-adv-x="471" d="M119 -215q0 29 16.5 56.5t43.5 64.5t42 74q-38 4 -62 32t-24 66q0 50 38.5 86.5t88.5 36.5q41 0 67.5 -28.5t26.5 -68.5q0 -58 -38 -142.5t-86.5 -145t-77.5 -60.5q-35 0 -35 29z" />
<glyph unicode="-" horiz-adv-x="817" d="M160 604q0 31 22 53.5t54 22.5h509q31 0 52.5 -22.5t21.5 -53.5t-21.5 -52.5t-52.5 -21.5h-509q-32 0 -54 21.5t-22 52.5z" />
<glyph unicode="." horiz-adv-x="471" d="M137 80q0 49 38 85t89 36q41 0 67.5 -28.5t26.5 -68.5q0 -51 -37.5 -87.5t-87.5 -36.5q-41 0 -68.5 29t-27.5 71z" />
<glyph unicode="/" horiz-adv-x="573" d="M-57 -18q0 21 10 36l733 1483q13 27 39.5 40.5t54.5 8.5q23 -4 37 -24t14 -45q0 -17 -8 -33l-735 -1485q-13 -28 -38.5 -42t-53.5 -9q-24 4 -38.5 24t-14.5 46z" />
<glyph unicode="0" d="M158 406l86 610q14 99 50 182.5t94 148.5t143 101.5t190 36.5t180.5 -37t114 -100.5t53.5 -149t-2 -182.5l-86 -610q-26 -185 -152 -305.5t-319 -120.5t-285.5 120.5t-66.5 305.5zM319 406q-18 -126 37 -200.5t174 -74.5t195 74.5t94 200.5l88 626q20 140 -29.5 221.5 t-177.5 81.5t-200 -81.5t-92 -221.5z" />
<glyph unicode="1" d="M299 1114q0 51 49 78l438 258q25 14 52 14q37 0 58.5 -25.5t16.5 -62.5l-184 -1313q-5 -32 -32.5 -56.5t-61.5 -24.5q-33 0 -54 24t-16 57l168 1190l-276 -161q-71 -41 -97 -41q-24 0 -42.5 18.5t-18.5 44.5z" />
<glyph unicode="2" d="M102 74q0 44 25 92q51 92 134.5 185.5t159 158.5t178.5 153.5t163 147.5q71 71 112 142t41 159q0 100 -56.5 161.5t-164.5 61.5q-106 0 -198 -39q-20 -8 -48 -24t-47.5 -24.5t-35.5 -8.5q-29 0 -49.5 19t-20.5 49q0 48 65 86q158 92 357 92q171 0 266.5 -96t95.5 -244 q0 -130 -53 -232t-152 -198q-57 -55 -150 -134.5t-159 -135.5t-139 -135t-119 -154h563q30 0 50 -20t20 -50q0 -35 -27 -60.5t-63 -25.5h-674q-33 0 -53.5 20.5t-20.5 53.5z" />
<glyph unicode="3" d="M125 125q0 34 26.5 60t61.5 26q23 0 41 -12q35 -22 59.5 -34.5t68 -24t93.5 -11.5q76 0 137 23t99 59t63.5 84t36 95t10.5 95q0 111 -65.5 165.5t-177.5 54.5q-50 0 -91 -13q-4 -1 -10 -4.5t-12 -5.5t-14 -2q-41 0 -55 42.5t20 82.5l432 477h-455q-30 0 -49.5 20 t-19.5 50q0 37 27.5 65.5t64.5 28.5h571q35 0 56.5 -21.5t21.5 -58.5q0 -38 -31 -72l-407 -444q164 -5 262 -95t98 -249q0 -68 -18.5 -139t-58.5 -140t-95.5 -123.5t-137.5 -88t-177 -33.5q-31 0 -71 3t-96 12.5t-100.5 24t-76 41.5t-31.5 62z" />
<glyph unicode="4" d="M127 383q0 24 25 66l532 985q12 21 33 34t43 13q28 0 48.5 -21.5t20.5 -52.5q0 -19 -8 -35l-495 -913h405l57 401q4 34 31.5 57t61.5 23q32 0 51.5 -23t15.5 -57l-57 -401h90q29 0 47.5 -20t18.5 -48q0 -35 -26.5 -60.5t-62.5 -25.5h-88l-32 -244q-4 -33 -31.5 -56 t-61.5 -23t-53 22.5t-14 56.5l33 244h-512q-32 0 -52 22.5t-20 55.5z" />
<glyph unicode="5" d="M125 125q0 34 26.5 60t61.5 26q23 0 41 -12q33 -21 57 -33.5t68.5 -24.5t95.5 -12q78 0 140 23.5t100.5 61t64 88t35.5 101.5t10 105q0 121 -60 183.5t-161 62.5q-78 0 -155 -41q-17 -9 -41.5 -25t-42 -24.5t-35.5 -8.5q-34 0 -55 25t-15 63l107 613q7 41 38.5 65.5 t67.5 24.5h494q36 0 61 -17t25 -51q0 -43 -32 -64.5t-75 -21.5h-442l-78 -442q88 49 203 49q164 0 262 -99.5t98 -271.5q0 -75 -18.5 -150.5t-58 -147t-95.5 -126.5t-137.5 -88.5t-177.5 -33.5q-31 0 -71.5 3t-96.5 12.5t-100.5 24t-76.5 41.5t-32 62z" />
<glyph unicode="6" d="M160 475q0 213 35.5 391t104.5 312.5t181.5 210t257.5 75.5q34 0 77 -4t97.5 -14t90.5 -33t36 -55q0 -30 -26 -56t-58 -26q-15 0 -45 10q-95 31 -166 31q-73 0 -131.5 -27t-99 -72.5t-71 -113.5t-48.5 -141t-30 -164q120 96 288 96q159 0 258 -97t99 -276 q0 -107 -33 -203.5t-94 -172.5t-157 -121t-214 -45q-352 0 -352 495zM317.5 411q3.5 -79 22 -139.5t70 -96.5t133.5 -36q66 0 118.5 22t86.5 58t56.5 84.5t32 98t9.5 102.5q0 117 -58 176t-161 59q-83 0 -162.5 -31.5t-130.5 -82.5l-6 -50q-14 -85 -10.5 -164z" />
<glyph unicode="7" d="M256 51q0 17 12 41l647 1192h-553q-29 0 -48 21t-19 51q0 36 27 63t63 27h655q32 0 53 -21.5t21 -52.5q0 -30 -14 -55l-690 -1284q-25 -51 -82 -51q-30 0 -51 19t-21 50z" />
<glyph unicode="8" d="M109 342q0 271 309 422q-73 49 -116.5 122t-43.5 165q0 121 65 216.5t169 145t225 49.5q154 0 254 -89.5t100 -229.5q0 -225 -248 -367q203 -120 203 -327q0 -198 -149 -333.5t-367 -135.5q-179 0 -290 101.5t-111 260.5zM272 369q0 -105 72 -172.5t186 -67.5 q138 0 235 88.5t97 214.5q0 104 -74 171t-184 89q-143 -28 -237.5 -113.5t-94.5 -209.5zM420 1065q0 -88 61 -147.5t154 -77.5q116 25 195 99.5t79 178.5q0 89 -59 144t-152 55q-115 0 -196.5 -72t-81.5 -180z" />
<glyph unicode="9" d="M186 86q0 30 26 56t58 26q15 0 45 -10q95 -31 166 -31q73 0 132 27t99 72.5t70.5 113.5t49 141t30.5 164q-120 -96 -289 -96q-159 0 -257.5 95.5t-98.5 277.5q0 84 18.5 162.5t58.5 147.5t97 120.5t138 81.5t178 30q358 0 358 -503q0 -217 -33.5 -392.5t-101.5 -309 t-180.5 -206.5t-262.5 -73q-35 0 -78 4t-97.5 14t-90 33t-35.5 55zM381 940q0 -117 58.5 -176t162.5 -59q83 0 161.5 31.5t129.5 82.5l6 49q14 92 7.5 172t-29 139t-73.5 92.5t-126 33.5q-78 0 -137.5 -33t-93 -87.5t-50 -116.5t-16.5 -128z" />
<glyph unicode=":" horiz-adv-x="471" d="M137 80q0 49 38 85t89 36q41 0 67.5 -28.5t26.5 -68.5q0 -51 -37.5 -87.5t-87.5 -36.5q-41 0 -68.5 29t-27.5 71zM223 694q0 49 38 85t89 36q41 0 67.5 -28.5t26.5 -68.5q0 -51 -37.5 -87.5t-87.5 -36.5q-41 0 -68.5 29t-27.5 71z" />
<glyph unicode=";" horiz-adv-x="471" d="M119 -215q0 29 16.5 56.5t43.5 64.5t42 74q-38 4 -62 32t-24 66q0 50 38.5 86.5t88.5 36.5q41 0 67.5 -28.5t26.5 -68.5q0 -58 -38 -142.5t-86.5 -145t-77.5 -60.5q-35 0 -35 29zM223 694q0 49 38 85t89 36q41 0 67.5 -28t26.5 -68q0 -51 -37.5 -88t-87.5 -37 q-41 0 -68.5 29t-27.5 71z" />
<glyph unicode="&#x3c;" horiz-adv-x="1280" d="M240 709q0 12 1 21.5t5 18t6.5 14t10 12.5t11 10.5t15 9.5t15 8t18 9t18.5 9l870 418q37 18 66 -3.5t29 -59.5q0 -55 -68 -86l-786 -369l682 -369q47 -23 47 -67q0 -43 -40 -74t-77 -10l-754 422q-1 1 -10.5 6.5t-11 6.5t-9.5 6.5t-9.5 7.5t-7.5 7t-7.5 8t-5.5 8.5 t-5 10.5t-2 11.5t-1 13.5z" />
<glyph unicode="=" d="M188 541q0 33 24.5 56.5t55.5 23.5h652q31 0 55 -23.5t24 -56.5q0 -34 -22.5 -57t-56.5 -23h-652q-34 0 -57 23t-23 57zM188 909q0 33 24.5 56.5t55.5 23.5h652q31 0 55 -23.5t24 -56.5q0 -34 -22.5 -57t-56.5 -23h-652q-34 0 -57 23t-23 57z" />
<glyph unicode="&#x3e;" horiz-adv-x="1280" d="M178 268q0 25 19 47.5t49 36.5l786 369l-682 369q-47 23 -47 69q0 43 41 74t78 10l749 -420q23 -14 29.5 -18.5t20.5 -16.5t18 -24t4 -29q0 -10 -1.5 -19.5t-3 -16.5t-6.5 -14t-7.5 -11.5t-10.5 -10.5t-10.5 -8.5t-13.5 -8.5t-13.5 -7.5t-15.5 -8t-16 -7.5l-871 -422 q-37 -18 -66.5 5t-29.5 62z" />
<glyph unicode="?" horiz-adv-x="946" d="M260 1307q0 48 66 86q158 92 356 92q171 0 265.5 -95.5t94.5 -244.5q0 -129 -52.5 -231t-151.5 -199q-25 -25 -71.5 -64t-80.5 -72.5t-55 -68.5q-15 -24 -23 -80q-5 -33 -33 -57.5t-61 -24.5q-30 0 -51 22t-21 52q0 40 25 88q22 44 56.5 88.5t60.5 71.5t74.5 73.5 t68.5 67.5q72 75 112 144.5t40 156.5q0 99 -57 161t-163 62q-108 0 -200 -39q-20 -8 -48 -24t-47.5 -24.5t-35.5 -8.5q-27 0 -47.5 19t-20.5 49zM369 80q0 49 38 85t89 36q39 0 66.5 -28.5t27.5 -68.5q0 -51 -37.5 -87.5t-87.5 -36.5q-41 0 -68.5 29t-27.5 71z" />
<glyph unicode="@" horiz-adv-x="1523" d="M211 535q0 219 85.5 391.5t252.5 273t391 100.5q136 0 242.5 -42.5t173.5 -117.5t102 -174t35 -216q0 -88 -16 -161.5t-50 -134.5t-94.5 -95.5t-142.5 -34.5q-126 0 -176 88q-120 -109 -242 -109q-110 0 -169.5 77t-59.5 202q0 175 96 286t264 111q130 0 182 -75t52 -216 q0 -118 13.5 -167.5t59.5 -49.5q55 0 87 61.5t32 192.5q0 192 -104.5 310t-302.5 118q-128 0 -232 -45.5t-173 -126.5t-106.5 -191.5t-37.5 -240.5q0 -197 105.5 -312.5t307.5 -115.5q65 0 116 10.5t96 28t55 20.5q84 22 92 -45q7 -66 -92 -106q-59 -24 -146 -40t-170 -16 q-248 0 -387 153t-139 409zM702 588q0 -142 105 -142q82 0 170 76q-2 23 -2 84q0 64 -3 101t-13.5 68t-31 43.5t-53.5 12.5q-89 0 -130.5 -67t-41.5 -176z" />
<glyph unicode="A" horiz-adv-x="1124" d="M59 51q0 25 11 41l575 1264q51 108 123 108q42 0 62 -27t30 -81l221 -1264l1 -6q1 -6 1 -10q0 -43 -28.5 -69.5t-69.5 -26.5q-24 0 -46 17t-26 44l-47 285h-518l-127 -285q-11 -27 -37 -44t-49 -17q-33 0 -54.5 19.5t-21.5 51.5zM420 485h422l-115 695z" />
<glyph unicode="B" horiz-adv-x="1110" d="M164 98l174 1248q6 41 39.5 69.5t73.5 28.5h346q170 0 260 -94.5t90 -233.5q0 -74 -22.5 -133.5t-67.5 -103.5t-97.5 -75.5t-125.5 -60.5q44 -14 74 -26.5t68 -36.5t61.5 -52t40 -72t16.5 -99q0 -93 -37 -176.5t-103 -145.5t-161.5 -98.5t-206.5 -36.5h-338q-42 0 -66 29 q-20 23 -19 54q0 7 1 15zM336 160h250q165 0 253.5 77.5t88.5 204.5q0 108 -76.5 168t-202.5 60h-241zM430 829h236q55 0 110 17.5t102 50t76 86.5t29 121q0 79 -52 129.5t-167 50.5h-270z" />
<glyph unicode="C" horiz-adv-x="987" d="M164 504l61 438q35 244 170 383t365 139q135 0 236.5 -50t101.5 -118q0 -32 -25 -55.5t-59 -23.5q-20 0 -32 6.5t-38 27.5q-86 64 -196 64q-165 0 -249 -95.5t-110 -277.5l-61 -438q-8 -57 -8 -106q0 -106 39 -172q57 -96 223 -95q109 0 215 64q6 4 16 10.5t14 9t11 6 t11.5 5t11 2.5t13.5 1q29 0 46.5 -18t17.5 -45q0 -49 -56.5 -91.5t-145.5 -67.5t-185 -25q-230 0 -326 139q-70 102 -70 260q0 58 9 123z" />
<glyph unicode="D" horiz-adv-x="1134" d="M164 98l174 1250q6 40 39.5 69t73.5 29h231q102 0 184 -19.5t137 -55t94 -84t56 -106.5q17 -57 23 -123q2 -21 1 -42q0 -45 -8 -92l-53 -383q-12 -88 -40.5 -164.5t-80 -147t-121.5 -120.5t-171.5 -79.5t-223.5 -29.5h-231q-40 0 -65 29q-20 23 -20 54q0 7 1 15zM336 160 h201q98 0 174 29.5t124.5 82.5t77 120t39.5 149l54 383q7 39 7 76q0 34 -6 66q-13 66 -46.5 115t-101.5 77t-165 28h-200z" />
<glyph unicode="E" horiz-adv-x="970" d="M164 96l176 1252q5 36 38 66t73 30h555q30 0 49.5 -21t19.5 -51q0 -37 -28 -62.5t-64 -25.5h-487l-68 -479h449q28 0 48.5 -21t20.5 -51q0 -36 -27.5 -62t-64.5 -26h-448l-70 -485h508q31 0 52.5 -20t21.5 -48q0 -36 -30 -64t-67 -28h-542q-57 0 -89 22q-27 18 -27 57 q0 8 1 17z" />
<glyph unicode="F" horiz-adv-x="970" d="M158 61l180 1287q5 36 38 66t73 30h555q30 0 50.5 -21t20.5 -51q0 -37 -28 -62.5t-66 -25.5h-487l-68 -479h448q28 0 49 -21t21 -51q0 -36 -27.5 -62t-64.5 -26h-449l-81 -584q-5 -32 -33 -56.5t-62 -24.5q-33 0 -53.5 24t-15.5 57z" />
<glyph unicode="G" horiz-adv-x="1064" d="M164 504l61 438q35 244 170 383t365 139q135 0 236.5 -50t101.5 -118q0 -32 -25 -55.5t-59 -23.5q-20 0 -32 6.5t-38 27.5q-86 64 -196 64q-165 0 -249 -95.5t-110 -277.5l-61 -438q-8 -57 -8 -106q0 -106 39 -172q57 -95 223 -95q131 0 241 76l62 440h-199 q-28 0 -48 20.5t-20 49.5q0 35 28 60.5t63 25.5h243q53 0 82 -23q24 -20 24 -56q0 -7 -1 -15l-70 -490q-8 -59 -51.5 -106.5t-107.5 -75t-135 -41.5t-142 -14q-230 0 -326 139q-70 102 -70 260q0 58 9 123z" />
<glyph unicode="H" horiz-adv-x="1187" d="M158 63l186 1319q5 33 32 57.5t60 24.5q34 0 55.5 -25t16.5 -57l-82 -579h559l82 579q5 32 32.5 57t59.5 25t54 -25t18 -57l-187 -1319q-5 -34 -32.5 -58.5t-61.5 -24.5q-32 0 -52.5 24.5t-16.5 58.5l82 580h-560l-81 -580q-4 -34 -32.5 -58.5t-62.5 -24.5 q-33 0 -53.5 24.5t-15.5 58.5z" />
<glyph unicode="I" horiz-adv-x="464" d="M158 61l186 1321q5 33 32 57.5t60 24.5q34 0 55.5 -25t16.5 -57l-186 -1321q-5 -32 -33 -56.5t-62 -24.5q-33 0 -53.5 24t-15.5 57z" />
<glyph unicode="J" horiz-adv-x="788" d="M59 61q0 39 28 65t56 26q7 0 47 -7.5t76 -7.5q69 0 117.5 21.5t79 66.5t47.5 100.5t29 135.5l129 921q5 34 32 58t62 24q32 0 53 -25t16 -57l-129 -921q-16 -117 -48.5 -202t-88 -149.5t-141.5 -97t-203 -32.5q-162 0 -162 81z" />
<glyph unicode="K" horiz-adv-x="1019" d="M158 63l186 1319q5 33 32 57.5t60 24.5q34 0 55.5 -25t16.5 -57l-84 -596l608 639q13 16 35 27.5t43 11.5q28 0 48 -22q15 -15 15 -39q0 -10 -2 -21q-5 -26 -26 -51l-516 -540l381 -685q6 -15 6 -28q0 -35 -21.5 -66.5t-68.5 -31.5q-44 0 -64 38l-354 646l-119 -125 l-67 -476q-4 -34 -32.5 -58.5t-62.5 -24.5q-33 0 -53.5 24.5t-15.5 58.5z" />
<glyph unicode="L" horiz-adv-x="917" d="M162 92l182 1290q5 33 33 57.5t61 24.5t54 -24.5t16 -57.5l-172 -1224h506q28 0 47.5 -20.5t19.5 -49.5q0 -36 -27 -62t-63 -26h-577q-36 0 -60 27q-20 23 -21 54q0 5 1 11z" />
<glyph unicode="M" horiz-adv-x="1431" d="M150 59l184 1319q6 37 33.5 61.5t64.5 24.5q61 0 82 -53l279 -856l520 858q34 51 92 51q35 0 57 -25q17 -20 18 -48q0 -6 -1 -13l-185 -1319q-4 -32 -32 -55.5t-60 -23.5q-34 0 -55 23.5t-17 55.5l140 998l-428 -705q-30 -49 -86 -49q-57 0 -72 49l-231 705l-140 -998 q-4 -32 -33.5 -55.5t-64.5 -23.5q-32 0 -51 23t-14 56z" />
<glyph unicode="N" horiz-adv-x="1228" d="M158 63l184 1311q5 38 33.5 64t66.5 26q27 0 49 -13t31 -36l436 -1089l148 1054q4 34 33 59t63 25q33 0 53 -25t15 -59l-183 -1310q-6 -38 -35.5 -64t-68.5 -26q-25 0 -46 13t-30 34l-438 1091l-147 -1055q-4 -33 -33.5 -58t-63.5 -25q-33 0 -52.5 24.5t-14.5 58.5z" />
<glyph unicode="O" horiz-adv-x="1128" d="M164 504l61 438q16 110 55.5 202t104.5 165t163.5 114t221.5 41q99 0 175 -27t122.5 -74.5t74.5 -113.5q29 -65 32 -143q1 -18 1 -37q0 -61 -8 -127l-61 -438q-16 -110 -59 -204.5t-111 -166.5t-164.5 -112.5t-210.5 -40.5q-152 0 -250 71t-133 187q-22 73 -22 159 q0 51 8 107zM328 504q-7 -46 -7 -87q1 -107 47 -179q64 -98 216.5 -98.5t243 98t114.5 266.5l62 438q8 52 8 97q0 266 -264 266q-307 0 -359 -363z" />
<glyph unicode="P" horiz-adv-x="1085" d="M158 66l180 1280q6 40 39.5 69t73.5 29h301q108 0 188 -31t125.5 -85.5t67.5 -121.5t22 -147q0 -245 -146 -386t-386 -141h-236l-65 -466q-5 -34 -33 -60t-62 -26q-33 0 -53 26q-17 21 -17 49q0 5 1 11zM410 692h235q169 0 256.5 88.5t87.5 261.5q0 50 -12.5 91 t-40.5 76.5t-80.5 55t-126.5 19.5h-235z" />
<glyph unicode="Q" horiz-adv-x="1128" d="M162 504l61 438q16 110 55.5 202t104.5 165t163.5 114t221.5 41q99 0 175 -27t122.5 -74.5t75 -113.5t31.5 -143q1 -18 1 -37q0 -61 -8 -127l-61 -438q-29 -206 -148.5 -347.5t-308.5 -168.5q-3 -29 -3 -53q0 -68 24 -103q34 -47 112 -47q11 0 33 1t27 1q32 0 50.5 -17.5 t18.5 -48.5q0 -24 -9.5 -40t-22.5 -24.5t-40 -13t-46.5 -5t-57.5 -0.5q-133 0 -197 94q-53 77 -53 199q0 26 2 55q-125 16 -205.5 89.5t-108.5 183.5q-17 66 -17 140q0 50 8 105zM326 504q-7 -46 -7 -87q0 -108 47 -179q63 -99 216 -99t243.5 98.5t114.5 266.5l61 438 q8 52 8 97q0 266 -264 266q-306 0 -358 -363z" />
<glyph unicode="R" horiz-adv-x="1177" d="M158 66l180 1280q6 40 38 69t70 29h357q86 0 154.5 -19.5t112.5 -51.5t73 -77.5t41 -94.5t12 -105q0 -183 -101 -299.5t-276 -151.5l252 -539q4 -8 4 -34q0 -36 -35 -63t-65 -27q-47 0 -62 38l-276 615h-236l-79 -569q-5 -34 -34 -60t-63 -26q-32 0 -52 26q-16 20 -16 46 q0 7 1 14zM424 793h291q152 0 233.5 73t81.5 209q0 42 -12 77t-39.5 66t-80 48.5t-126.5 17.5h-278z" />
<glyph unicode="S" horiz-adv-x="995" d="M102 123q0 33 26.5 60.5t59.5 27.5q21 0 62 -18t102 -36t131 -18q153 0 233.5 77.5t80.5 213.5q0 116 -92 168q-35 20 -93 42t-105.5 38.5t-101 45.5t-90 63t-60.5 91t-24 130q0 206 131 331t345 125q44 0 94 -5.5t107 -18.5t93.5 -41t36.5 -66q0 -34 -27 -60t-67 -26 q-24 0 -57.5 14.5t-82 29t-108.5 14.5q-58 0 -107.5 -13t-92.5 -42t-68 -83.5t-25 -128.5q0 -38 8.5 -67t25 -48.5t29.5 -30.5t32 -22q35 -20 93.5 -42.5t106 -39t101 -45.5t90 -63t60.5 -90.5t24 -128.5q0 -146 -69.5 -256.5t-185.5 -167.5t-259 -57q-52 0 -110 8 t-115.5 24t-94.5 45t-37 66z" />
<glyph unicode="T" horiz-adv-x="989" d="M242 1356q0 30 29 59t65 29h721q30 0 51.5 -21t21.5 -51q0 -35 -29.5 -61.5t-66.5 -26.5h-278l-172 -1223q-5 -32 -33 -56.5t-62 -24.5q-33 0 -53.5 24t-15.5 57l172 1223h-279q-31 0 -51 21t-20 51z" />
<glyph unicode="U" horiz-adv-x="1171" d="M199 471l129 907q4 36 32 61t64 25q32 0 52 -26q17 -21 17 -49q0 -6 -1 -11l-130 -907q-5 -39 -6 -74q0 -103 46 -169q61 -90 204 -89q142 0 226.5 90t105.5 242l129 907q5 34 32 60t60 26q35 0 57 -26q17 -21 18 -47q0 -6 -1 -13l-129 -907q-30 -218 -170 -354.5 t-350 -136.5q-213 0 -314 136q-78 105 -78 259q0 46 7 96z" />
<glyph unicode="V" horiz-adv-x="1083" d="M223 1352v16q0 43 29.5 69.5t69.5 26.5q23 0 44 -17t25 -44l187 -1139l505 1139q12 27 38 44t50 17q34 0 55 -19.5t21 -51.5q0 -17 -8 -41l-577 -1264q-24 -52 -53 -80t-72 -28q-41 0 -62 28.5t-29 79.5z" />
<glyph unicode="W" horiz-adv-x="1589" d="M223 1362v6q0 41 33 64.5t72 23.5q26 0 44 -15t21 -44l101 -1092l383 1041q24 64 48.5 91t73.5 27q46 0 64.5 -29t23.5 -89l93 -1041l409 1092q10 28 30.5 43.5t45.5 15.5q33 0 60.5 -17t27.5 -48q0 -7 -8 -31l-483 -1266q-19 -50 -51 -82t-74 -32q-43 0 -66.5 33.5 t-26.5 82.5l-92 1030l-383 -1032q-43 -114 -125 -114q-42 0 -65.5 32t-28.5 82z" />
<glyph unicode="X" d="M39 55q0 27 18 54l463 643l-258 587q-4 8 -4 35q0 35 26.5 62.5t59.5 27.5q49 0 80 -71l213 -510l356 510q53 71 99 71q27 0 45 -20.5t18 -50.5q0 -32 -16 -54l-426 -587l282 -643q9 -18 9 -37q0 -33 -29 -62.5t-60 -29.5q-47 0 -71 59l-244 582l-407 -582 q-39 -59 -87 -59q-29 0 -48 22.5t-19 52.5z" />
<glyph unicode="Y" horiz-adv-x="974" d="M223 1372q0 36 30.5 64t65.5 28q46 0 60 -32l215 -674l403 674q19 32 68 32q29 0 51.5 -22t22.5 -53q0 -18 -15 -48l-475 -778l-69 -497q-5 -34 -33.5 -60t-63.5 -26t-55 25q-17 20 -17 47q0 7 1 14l71 501l-256 774q-4 16 -4 31z" />
<glyph unicode="Z" horiz-adv-x="991" d="M72 80q0 28 30 76l789 1124h-567q-31 0 -50.5 20.5t-19.5 51.5q0 36 28 64t64 28h694q35 0 56.5 -22t21.5 -56q0 -30 -31 -74l-792 -1128h577q29 0 49.5 -20.5t20.5 -51.5q0 -37 -28.5 -64.5t-65.5 -27.5h-703q-32 0 -52.5 23t-20.5 57z" />
<glyph unicode="[" horiz-adv-x="602" d="M135 -170l244 1733q11 77 117 77h209q26 0 45.5 -19.5t19.5 -47.5q0 -45 -33 -65.5t-80 -20.5h-127l-223 -1581h127q92 0 92 -66q0 -46 -34.5 -67t-81.5 -21h-209q-31 0 -51 23.5t-15 54.5z" />
<glyph unicode="\" horiz-adv-x="573" d="M152 1460q0 32 21 58t52 32q29 5 51.5 -8.5t28.5 -40.5l318 -1483q2 -4 2 -14q0 -34 -21 -60t-53 -32q-28 -5 -51 9.5t-29 41.5l-317 1485q0 2 -1 6t-1 6z" />
<glyph unicode="]" horiz-adv-x="602" d="M25 -180q0 47 33.5 66.5t82.5 19.5h127l221 1581h-127q-94 0 -94 67q0 45 35 65.5t84 20.5h209q29 0 49.5 -24t16.5 -53l-244 -1733q-5 -32 -30.5 -55t-57.5 -23h-209q-40 0 -68 16.5t-28 51.5z" />
<glyph unicode="^" horiz-adv-x="667" d="M158 1094q8 34 51 77l266 279q28 31 66 31q34 0 55 -31l190 -279q30 -44 27 -77q-3 -25 -22.5 -40.5t-47.5 -15.5q-15 0 -28.5 8t-18.5 19l-176 266l-254 -266q-8 -11 -24 -19t-31 -8q-27 0 -41.5 15.5t-11.5 40.5z" />
<glyph unicode="_" horiz-adv-x="1228" d="M12 -410q0 33 24.5 56.5t55.5 23.5h1208q31 0 55.5 -23.5t24.5 -56.5q0 -34 -23 -56.5t-57 -22.5h-1208q-34 0 -57 22.5t-23 56.5z" />
<glyph unicode="`" horiz-adv-x="403" d="M254 1415q0 30 24.5 53t49.5 23q13 0 23.5 -4.5t15 -8t15 -16.5t15.5 -18l135 -166q9 -9 9 -25q0 -33 -24.5 -55t-55.5 -22q-32 0 -60 36l-141 177q-6 9 -6 26z" />
<glyph unicode="a" horiz-adv-x="987" d="M145 371l37 260q28 195 135 308.5t301 113.5q182 -1 251 -105q49 -74 48 -196q0 -52 -8 -113l-63 -451q-2 -12 -2 -22q0 -39 30 -39q3 0 8 1t9 2q25 0 38 -17.5t13 -42.5q0 -41 -30.5 -60.5t-71.5 -19.5q-47 0 -84 25t-54 69q-167 -100 -294 -100q-150 0 -219 106 q-51 78 -51 193q0 41 7 88zM305 371q-5 -35 -5 -66q0 -71 28 -115q40 -62 133 -63q110 0 229 88l68 477q4 30 4 56q0 69 -29 106q-40 51 -145 51q-115 0 -170 -63t-76 -211z" />
<glyph unicode="b" horiz-adv-x="993" d="M195 307l155 1100q5 33 29 55.5t61 22.5t56 -23t14 -55l-61 -438q130 84 284 84q165 0 229 -87q49 -66 49 -167q0 -31 -5 -66l-56 -385q-23 -161 -134 -262.5t-292 -101.5q-172 0 -260 92q-72 75 -72 183q0 23 3 48zM354 307q-2 -16 -2 -30q0 -61 42 -99q52 -46 151 -47 q108 0 170 56.5t76 160.5l55 385q3 20 3 38q0 142 -175 142q-141 0 -248 -102z" />
<glyph unicode="c" horiz-adv-x="804" d="M143 212q-7 34 -7 71t7 77l43 310q23 168 130 272.5t290 104.5q39 0 81.5 -6t85.5 -18.5t71 -36.5t28 -56q0 -31 -23.5 -54.5t-55.5 -23.5q-21 0 -31 6q-3 1 -17 8.5t-18 9t-17 7.5t-19 7.5t-18.5 5.5t-22 5t-22.5 2.5t-26 1.5q-225 0 -256 -235l-45 -310q-4 -29 -4 -55 q-1 -77 33 -121q44 -60 162 -59q12 0 23 0.5t22.5 3t19 3.5t20.5 5.5t17.5 5.5t19.5 7t16.5 6.5t18.5 7.5l17 8q12 6 32 6q26 0 44 -18t18 -43q0 -36 -33 -63.5t-83 -41.5t-98 -21t-89 -7q-93 0 -161 29t-103.5 80t-49.5 119z" />
<glyph unicode="d" horiz-adv-x="999" d="M145 371l37 260q14 96 41.5 168.5t74 129t118 86t166.5 29.5q115 0 221 -38l57 401q5 34 29 56t61 22t56 -22.5t14 -55.5l-166 -1174q-3 -19 -3 -35q0 -20 5 -36q8 -28 35 -51q8 -20 8 -33q0 -34 -25.5 -57t-56.5 -23q-68 0 -98 65q-169 -79 -303 -79q-156 0 -226 105 q-51 77 -52 193q0 42 7 89zM305 371q-5 -36 -6 -68q0 -176 170 -176q105 0 223 59q-2 18 2 47l88 629q-44 20 -101.5 31.5t-98.5 11.5q-110 0 -164.5 -64.5t-75.5 -209.5z" />
<glyph unicode="e" horiz-adv-x="890" d="M137 324l56 383q23 154 133.5 250t287.5 96q147 0 223 -74t76 -205q0 -169 -95.5 -263.5t-297.5 -94.5q-102 0 -207 18l-16 -121q-2 -17 -2 -32q1 -65 41 -106q50 -50 158 -50q59 0 105.5 13.5t115.5 43.5q12 6 28 6q27 0 44.5 -18.5t17.5 -44.5q0 -37 -37.5 -66 t-95 -44.5t-113.5 -23t-104 -7.5q-169 0 -254 96q-68 77 -68 187q0 27 4 57zM330 565q106 -14 215 -14q209 0 209 205q0 151 -164 151q-99 0 -162.5 -49.5t-75.5 -136.5z" />
<glyph unicode="f" horiz-adv-x="673" d="M100 -362l205 1462q27 187 138.5 283t275.5 102q18 1 41.5 -0.5t56 -8t54.5 -26t22 -49.5q0 -37 -27.5 -60.5t-62.5 -23.5q-15 0 -53.5 7t-69.5 7q-87 0 -143.5 -61.5t-69.5 -153.5l-18 -127h215q28 0 45.5 -18.5t17.5 -46.5q0 -36 -26 -61t-60 -25h-213l-168 -1200 q-5 -34 -29 -56t-61 -22t-56 22.5t-14 55.5z" />
<glyph unicode="g" horiz-adv-x="993" d="M143 -342q0 31 24 54.5t56 23.5q16 0 31 -6q31 -16 48 -24t47.5 -15.5t64.5 -7.5q225 0 256 235l20 143q-128 -75 -272 -75q-283 0 -283 274q0 46 8 98l45 324q23 164 134 267.5t292 103.5q174 0 262 -94q72 -76 72 -183q0 -26 -4 -53l-115 -805q-23 -169 -128.5 -273 t-288.5 -104q-39 0 -82 6t-87 18.5t-72 36.5t-28 56zM303 358q-4 -32 -4 -60q0 -173 172 -173q142 0 242 94l71 504q2 16 2 31q0 64 -41 103q-51 48 -151 48q-108 0 -170 -58t-76 -165z" />
<glyph unicode="h" horiz-adv-x="1038" d="M160 63l190 1354q5 32 30 56t58 24q34 0 54 -23t16 -57l-64 -450q127 86 269 86q159 -1 227 -93q51 -69 51 -173q0 -35 -6 -74l-74 -520q-2 -18 -3 -34q0 -41 18 -63q10 -15 10 -33q0 -32 -25 -55.5t-59 -23.5q-106 0 -106 137q0 32 6 72l73 518q3 25 3 46q0 62 -26 98 q-35 48 -128 48q-67 0 -135.5 -30t-118.5 -87l-103 -723q-5 -34 -29.5 -56.5t-58.5 -22.5t-53.5 22.5t-15.5 56.5z" />
<glyph unicode="i" horiz-adv-x="501" d="M199 193l108 774q5 33 31 56.5t59 23.5q34 0 54.5 -24t15.5 -56l-109 -774q-2 -18 -2 -34q0 -41 17 -63q10 -15 10 -33q0 -32 -26 -55.5t-60 -23.5q-104 0 -104 136q0 33 6 73zM344 1358q0 44 34 76t79 32q38 0 62 -24.5t24 -61.5q0 -44 -34 -77t-79 -33q-38 0 -62 25.5 t-24 62.5z" />
<glyph unicode="j" horiz-adv-x="501" d="M-117 -362q-1 5 -1 10q0 30 21 50q24 22 54 28q91 20 142 73.5t65 161.5l141 1006q5 33 32 56.5t60 23.5t53 -23.5t15 -56.5l-139 -998q-23 -162 -112.5 -262.5t-229.5 -120.5q-16 -2 -39 -2q-25 0 -42 14.5t-20 39.5zM342 1358q0 44 34.5 76t80.5 32q37 0 60.5 -24.5 t23.5 -61.5q0 -44 -33.5 -77t-79.5 -33q-37 0 -61.5 25.5t-24.5 62.5z" />
<glyph unicode="k" horiz-adv-x="899" d="M160 63l188 1342q4 34 31 57t61 23t53.5 -23t14.5 -57l-107 -764l424 385q18 18 52 18q30 0 48.5 -18.5t18.5 -46.5q0 -35 -29 -61l-346 -308l275 -512q10 -20 6 -47q-6 -30 -29.5 -48.5t-54.5 -18.5q-41 0 -61 39l-248 483l-86 -76l-52 -367q-4 -34 -30 -56.5t-60 -22.5 t-53.5 22.5t-15.5 56.5z" />
<glyph unicode="l" horiz-adv-x="466" d="M180 193l170 1212q5 33 31 56.5t59 23.5q34 0 54 -23t16 -57l-170 -1212q-3 -19 -3 -35q0 -41 17 -62q11 -16 11 -33q0 -32 -26 -55.5t-60 -23.5q-105 0 -105 136q0 33 6 73z" />
<glyph unicode="m" horiz-adv-x="1593" d="M166 63l98 697q6 37 6 62q0 28 -2 39q-2 8 -10.5 23.5t-9.5 18.5q-10 30 -10 35q0 32 25.5 55t60.5 23q48 0 75 -55q155 92 312 92t223 -105q150 105 311 105q163 -1 239 -95q59 -73 59 -185q0 -32 -5 -68l-72 -512q-2 -18 -2 -34q0 -41 17 -63q10 -15 10 -33 q0 -32 -26 -55.5t-60 -23.5q-104 0 -104 136q0 33 6 73l71 507q3 22 3 43q0 62 -30 105q-40 57 -130 57q-65 0 -131.5 -30.5t-110.5 -77.5q1 -18 1 -35q0 -29 -3 -57l-90 -642q-5 -34 -28.5 -55.5t-61.5 -21.5t-56.5 21.5t-13.5 55.5l84 594q7 56 7 100q0 15 -1 29 q-3 55 -37.5 87t-103.5 32q-64 0 -131.5 -23.5t-118.5 -58.5q0 -45 -2 -63l-98 -697q-5 -34 -28.5 -55.5t-61.5 -21.5t-56.5 21.5t-13.5 55.5z" />
<glyph unicode="n" horiz-adv-x="1042" d="M166 63l98 697q6 37 6 62q0 28 -2 39q-2 8 -10.5 23.5t-9.5 18.5q-10 30 -10 35q0 32 25.5 55t60.5 23q50 0 77 -60q148 93 308 93q159 -1 227 -105q50 -76 50 -192q0 -43 -7 -90l-66 -469q-2 -18 -2 -34q0 -41 17 -63q10 -15 10 -33q0 -32 -26 -55.5t-60 -23.5 q-104 0 -104 136q0 33 6 73l65 469q5 36 5 66q0 70 -27 114q-39 63 -131 63q-117 0 -240 -86q0 -43 -2 -59l-98 -697q-5 -34 -28.5 -55.5t-61.5 -21.5t-56.5 21.5t-13.5 55.5z" />
<glyph unicode="o" horiz-adv-x="950" d="M141 348l49 342q23 160 138.5 262.5t296.5 102.5q181 -1 267 -103q68 -81 69 -197q0 -31 -5 -65l-49 -342q-23 -160 -138 -262t-296 -102q-183 0 -269 102q-68 81 -68 197q0 31 5 65zM301 348q-3 -23 -3 -44q0 -72 38 -116q49 -57 158 -57t174.5 57.5t79.5 159.5l49 344 q3 22 3 42q0 71 -39 116q-50 57 -159 57t-173.5 -57t-78.5 -158z" />
<glyph unicode="p" horiz-adv-x="978" d="M106 -362l158 1118q4 31 4 58q0 51 -16 85q-10 17 -10 33q0 33 26 56.5t56 23.5q46 0 73 -49q180 90 312 90q158 0 227 -105q52 -78 52 -194q0 -41 -7 -88l-39 -267q-28 -198 -121.5 -305.5t-277.5 -107.5q-112 0 -221 39l-56 -387q-5 -34 -29 -56t-61 -22t-56 22.5 t-14 55.5zM342 168q41 -21 97.5 -32t101.5 -11q111 0 165.5 64.5t75.5 209.5l39 267q5 36 5 67q0 176 -171 176q-109 0 -231 -69q2 -30 2 -51t-2 -33z" />
<glyph unicode="q" horiz-adv-x="993" d="M143 358l45 324q23 164 134 267.5t292 103.5q174 0 262 -94q72 -76 72 -183q0 -26 -4 -53l-153 -1085q-5 -34 -29 -56t-62 -22t-56 22t-13 56l59 423q-128 -75 -272 -75q-283 0 -283 274q0 46 8 98zM303 358q-4 -32 -4 -60q0 -173 172 -173q142 0 242 94l71 504 q2 16 2 31q0 64 -41 103q-51 48 -151 48q-108 0 -170 -58t-76 -165z" />
<glyph unicode="r" horiz-adv-x="690" d="M166 63l98 693q3 28 3 52q0 55 -17 91q-8 13 -8 33q0 34 25.5 57t58.5 23q49 0 73 -56q70 40 151.5 64t141.5 24q99 0 99 -65q0 -41 -29 -69q-27 -26 -61 -25h-5h-28q-33 1 -56 -1q-31 -2 -81.5 -19.5t-104.5 -53.5q0 -39 -2 -55l-98 -693q-4 -34 -30 -56.5t-60 -22.5 t-54 22.5t-16 56.5z" />
<glyph unicode="s" horiz-adv-x="831" d="M111 94q0 30 24.5 56t61.5 26q8 0 20 -4q112 -47 199 -47q98 0 154.5 43t56.5 131q0 71 -60 104q-23 14 -64.5 30.5t-77.5 29t-77 35.5t-70 49.5t-48 70.5t-19 99q0 150 100 243t277 93q41 0 83.5 -5.5t83 -17.5t66 -34t25.5 -50q0 -33 -25.5 -57.5t-60.5 -24.5 q-15 0 -35 10q-27 13 -42 19t-44 12t-64 6q-204 0 -204 -163q0 -69 80 -111q26 -14 80 -35t91.5 -39t78 -48t62 -77.5t21.5 -111.5q0 -157 -101 -249.5t-288 -92.5q-43 0 -87.5 5t-91 16.5t-76 34.5t-29.5 54z" />
<glyph unicode="t" horiz-adv-x="657" d="M204 180q-7 41 -6 92q0 65 11 144l121 856q5 34 29 56t61 22t55.5 -22.5t13.5 -55.5l-38 -283h213q28 0 45.5 -18.5t17.5 -46.5q0 -36 -26 -61t-60 -25h-213l-57 -408q-13 -81 -13 -138q0 -54 12 -86q24 -66 130 -65q6 0 19.5 1t19.5 1q96 0 96 -63q0 -37 -20.5 -57.5 t-46 -25.5t-62.5 -5q-141 0 -213.5 47t-88.5 141z" />
<glyph unicode="u" horiz-adv-x="1042" d="M205 371l84 598q5 34 29 56t61 22t56 -22.5t14 -55.5l-84 -598q-5 -36 -5 -67q0 -71 27 -114q39 -63 131 -63q119 0 236 68q0 25 4 57l100 717q5 34 28.5 56t61.5 22t56.5 -22t13.5 -56l-100 -717q-6 -37 -6 -62q0 -28 3 -40q2 -9 9.5 -22t9.5 -19q8 -24 8 -35 q0 -31 -25.5 -54.5t-60.5 -23.5q-50 0 -80 61q-137 -73 -301 -73q-159 0 -227 104q-50 76 -50 193q0 42 7 90z" />
<glyph unicode="v" horiz-adv-x="880" d="M190 952q-1 7 -1 13q1 28 25 52q30 30 67 30q24 0 41.5 -14t21.5 -40l131 -772l346 772q11 23 33 38.5t45 15.5q39 0 59 -31q11 -17 11 -36q0 -16 -8 -34l-400 -866q-25 -51 -52.5 -73.5t-66.5 -22.5q-41 0 -61 22t-29 72z" />
<glyph unicode="w" horiz-adv-x="1341" d="M186 958v7q0 31 27 56.5t63 25.5q26 0 44.5 -15.5t21.5 -42.5l88 -753q185 468 289 739q13 32 39 52t61 20q34 0 54.5 -20t23.5 -52q14 -143 84 -739l297 753q9 25 31.5 41.5t48.5 16.5q29 0 48 -20t19 -50q0 -17 -4 -25l-358 -876q-21 -48 -47 -70t-68 -22q-34 0 -58 18 t-28 51l-82 719l-284 -719q-28 -69 -105 -69t-90 92z" />
<glyph unicode="x" horiz-adv-x="882" d="M59 53q0 25 17 45l346 426l-211 406q-8 16 -8 28q0 33 28 61t64 28q16 0 28.5 -5.5t23 -18.5t15 -21t13.5 -25l162 -318l262 334q21 28 39.5 41t44.5 13q27 0 47 -19.5t20 -48.5q0 -28 -16 -47l-326 -404l228 -426q6 -12 6 -26q0 -36 -27.5 -64t-66.5 -28q-27 0 -41.5 12 t-28.5 43l-182 356l-293 -370q-33 -41 -72 -41q-31 0 -51.5 19.5t-20.5 49.5z" />
<glyph unicode="y" horiz-adv-x="1042" d="M203 -342q0 31 24 54.5t56 23.5q15 0 30 -6q31 -16 48 -24t47.5 -15.5t64.5 -7.5q225 0 256 235l21 143q-128 -75 -273 -75q-282 0 -282 274q0 45 8 98l84 611q5 33 30 55.5t62 22.5t54.5 -22t12.5 -56l-84 -611q-4 -32 -4 -60q0 -173 172 -173q142 0 242 94l105 750 q5 34 29.5 56t62.5 22t55 -22t12 -56l-147 -1051q-23 -168 -129 -272.5t-289 -104.5q-55 0 -112 9.5t-106.5 37.5t-49.5 70z" />
<glyph unicode="z" horiz-adv-x="786" d="M41 76q0 34 22 61l613 750h-428q-28 0 -46 18.5t-18 46.5q0 35 25.5 58.5t60.5 23.5h543q32 0 52 -19t20 -52q0 -34 -27 -68l-610 -748h452q29 0 47.5 -18.5t18.5 -46.5q0 -33 -26 -57.5t-60 -24.5h-567q-31 0 -51.5 22t-20.5 54z" />
<glyph unicode="{" horiz-adv-x="854" d="M131 483q0 40 25.5 62t66.5 22q77 0 122 44.5t65 140.5q13 61 37.5 190.5t37.5 187.5q25 116 123 184t234 68q23 0 40 -2.5t34.5 -9t26.5 -22t9 -39.5q0 -31 -10 -49.5t-25 -23t-31.5 -6t-29.5 2.5q-32 4 -53 4q-57 0 -106 -35.5t-60 -95.5l-64 -342q-40 -201 -186 -270 q130 -71 111 -271l-33 -342q-6 -60 31.5 -95.5t93.5 -35.5q27 0 59 4q17 1 34 2.5t30.5 -11t13.5 -38.5q0 -32 -11.5 -53.5t-33 -31.5t-42.5 -13.5t-48 -3.5q-137 0 -215.5 68t-69.5 184l31 379q7 95 -26 139.5t-111 44.5q-32 0 -51 16t-19 47z" />
<glyph unicode="|" horiz-adv-x="464" d="M100 -418l267 1899q5 30 29.5 51.5t54.5 21.5q31 0 49.5 -22t13.5 -51l-266 -1899q-5 -30 -29.5 -52t-54.5 -22q-31 0 -50 22.5t-14 51.5z" />
<glyph unicode="}" horiz-adv-x="854" d="M39 -322q0 31 10 49.5t25 23t31.5 6t29.5 -2.5q32 -4 58 -4q55 0 101.5 35.5t57.5 95.5l66 342q40 203 184 271q-127 69 -108 270l32 342q6 60 -32 95.5t-95 35.5q-25 0 -57 -4q-17 -1 -34 -2.5t-30.5 11t-13.5 38.5q0 32 11.5 53.5t33 31.5t42.5 13.5t48 3.5 q130 0 208.5 -63.5t78.5 -171.5q0 -9 -16.5 -212t-16.5 -212q0 -80 33 -118t105 -38q69 0 69 -63q0 -40 -24.5 -62t-65.5 -22q-78 0 -123.5 -44.5t-64.5 -139.5l-76 -379q-23 -116 -121 -184t-235 -68q-32 0 -53.5 4t-39.5 21t-18 48z" />
<glyph unicode="~" horiz-adv-x="929" d="M217 651q9 66 76.5 113t148.5 47q56 0 128.5 -38.5t105.5 -41.5q31 0 56.5 10t40 22t33.5 23.5t38 14.5q27 0 45 -20t18 -50q0 -64 -72.5 -109.5t-150.5 -50.5q-45 0 -88 18t-81 38.5t-66 23.5q-30 0 -56 -10.5t-41 -23t-34 -23t-37 -10.5q-28 0 -46 18.5t-18 48.5z" />
<glyph unicode="&#xa2;" d="M205 422l31 207q23 155 114 255t248 117l12 91q3 22 21 37.5t41 15.5t35.5 -15.5t9.5 -37.5l-12 -88q85 -7 151 -36t66 -79q0 -31 -24 -54.5t-56 -23.5q-16 0 -31 6q-76 39 -125 45l-96 -676q45 5 139 47q21 7 33 7q26 0 43.5 -18.5t17.5 -43.5q0 -41 -43.5 -71 t-96.5 -42.5t-112 -17.5l-14 -104q-3 -22 -21 -38t-40 -16t-35 16t-10 38l14 104q-155 17 -219 118.5t-41 256.5zM367 422q-14 -97 13.5 -154t104.5 -75l93 663q-155 -32 -183 -227z" />
<glyph unicode="&#xa5;" horiz-adv-x="974" d="M139 406q0 34 28.5 58.5t63.5 24.5h242l10 78l-14 37h-223q-31 0 -50.5 19.5t-19.5 48.5q0 34 28.5 59t63.5 25h152l-193 585q-4 16 -4 31q0 36 30.5 64t65.5 28q49 0 60 -32l215 -674l403 674q22 32 68 32q31 0 52.5 -22t21.5 -53q0 -18 -15 -48l-358 -585h154 q28 0 48.5 -19.5t20.5 -48.5q0 -35 -27.5 -59.5t-64.5 -24.5h-223l-23 -41l-10 -74h242q28 0 48.5 -19t20.5 -48q0 -35 -27.5 -59.5t-64.5 -24.5h-242l-38 -272q-5 -34 -32.5 -60t-62.5 -26t-56.5 25.5t-16.5 60.5l39 272h-242q-31 0 -50.5 19.5t-19.5 48.5z" />
<glyph unicode="&#xa8;" horiz-adv-x="825" d="M330 1296q0 43 32.5 76t75.5 33q38 0 62 -24.5t24 -61.5q0 -44 -34 -77.5t-78 -33.5q-36 0 -59 26t-23 62zM674 1298q0 41 34.5 74t77.5 33q37 0 60.5 -24.5t23.5 -61.5q0 -44 -33.5 -77.5t-76.5 -33.5q-36 0 -61 26.5t-25 63.5z" />
<glyph unicode="&#xa9;" horiz-adv-x="1515" d="M211 535q0 219 85.5 391.5t252.5 273t391 100.5q262 0 402.5 -150t140.5 -402q0 -219 -85.5 -391.5t-252.5 -273.5t-391 -101q-262 0 -402.5 150.5t-140.5 402.5zM336 555q0 -206 112.5 -328.5t323.5 -122.5q136 0 247 47.5t185 131t114 197.5t40 247q0 206 -112.5 328.5 t-323.5 122.5q-136 0 -247 -47.5t-185 -131t-114 -197.5t-40 -247zM563 580l19 125q20 134 105 217.5t231 83.5q32 0 66 -4.5t68 -15t56 -30t22 -45.5q0 -23 -19 -42t-44 -19q-15 0 -27 6q-24 13 -37 19t-37 12t-51 6q-181 0 -206 -188l-19 -125q-28 -189 154 -189 q20 0 37.5 2.5t39 10t28 10.5t32.5 14q15 6 27 6q22 0 35.5 -14.5t13.5 -36.5q0 -28 -26 -49.5t-65.5 -32.5t-78 -16.5t-72.5 -5.5q-147 0 -208.5 83t-43.5 218z" />
<glyph unicode="&#xab;" horiz-adv-x="882" d="M158 524l377 469q24 29 41 41.5t42 12.5q27 0 47.5 -19.5t20.5 -48.5q0 -28 -16 -47l-326 -404l227 -426q7 -14 7 -26q0 -36 -28 -64t-67 -28q-26 0 -40.5 12t-30.5 43zM485 524l283 353q23 28 40.5 40.5t43.5 12.5t47 -20t21 -48q0 -27 -17 -47l-231 -291l149 -291 q6 -12 6 -28q0 -35 -29.5 -60.5t-60.5 -25.5q-26 0 -39.5 12.5t-27.5 40.5z" />
<glyph unicode="&#xad;" horiz-adv-x="817" d="M160 604q0 31 22 53.5t54 22.5h509q31 0 52.5 -22.5t21.5 -53.5t-21.5 -52.5t-52.5 -21.5h-509q-32 0 -54 21.5t-22 52.5z" />
<glyph unicode="&#xae;" horiz-adv-x="1433" d="M244 772q0 151 46.5 281t132 226t214.5 151t287 55q247 0 377.5 -141t130.5 -377q0 -150 -46 -277.5t-131 -221.5t-214 -147t-287 -53q-247 0 -378.5 137t-131.5 367zM369 791q0 -182 103.5 -291t297.5 -109q166 0 289.5 73t186.5 198.5t63 285.5q0 189 -104 301.5 t-298 112.5q-167 0 -290.5 -76t-185.5 -204.5t-62 -290.5zM580 606l73 522q3 27 27 48.5t51 21.5h158q101 0 148.5 -50t47.5 -124t-35.5 -127t-97.5 -80l103 -199q4 -16 4 -18q0 -20 -24.5 -32.5t-47.5 -12.5q-38 0 -51 20l-111 222h-96l-27 -191q-3 -20 -23.5 -35.5 t-45.5 -15.5q-24 0 -40 15t-13 36zM745 915h105q54 0 82.5 24.5t28.5 68.5q0 69 -93 69h-98z" />
<glyph unicode="&#xb4;" horiz-adv-x="565" d="M332 1237q0 25 16 41l182 166q5 5 14 13t13 11.5t11.5 9t13 7.5t13.5 4t17 2q21 0 38.5 -17t17.5 -42q0 -28 -17 -43l-190 -177q-39 -36 -72 -36q-25 0 -41 17t-16 44z" />
<glyph unicode="&#xb8;" horiz-adv-x="614" d="M72 -336q7 10 14.5 15t18.5 5t19.5 -2t27 -6.5t30.5 -7.5q69 -14 111.5 18.5t42.5 73.5q0 60 -115 66q-49 3 -63 16t-2 49l47 150h100l-37 -123q203 -3 203 -151q0 -96 -84 -157.5t-227 -41.5q-50 7 -79 35t-7 61z" />
<glyph unicode="&#xbb;" horiz-adv-x="882" d="M111 186q0 28 16 47l231 291l-149 291q-6 12 -6 29q0 35 29.5 60.5t60.5 25.5q26 0 39.5 -12.5t27.5 -40.5l185 -353l-283 -352q-23 -28 -40.5 -40.5t-43.5 -12.5q-27 0 -47 19t-20 48zM324 57q0 26 16 45l346 426l-211 404q-6 12 -6 29q0 35 29.5 60.5t60.5 25.5 q26 0 40 -13t28 -41l245 -469l-391 -485q-25 -31 -42.5 -43t-43.5 -12q-33 0 -52 20.5t-19 52.5z" />
<glyph unicode="&#x2c6;" horiz-adv-x="811" d="M330 1212q0 33 47 68l180 137q25 17 47 17t43 -17l141 -137q29 -29 29 -55q0 -22 -18 -41t-41 -19q-24 0 -37 13l-135 125l-170 -125q-17 -13 -41 -13q-18 0 -31.5 14.5t-13.5 32.5z" />
<glyph unicode="&#x2da;" horiz-adv-x="1169" d="M557 1294q0 93 70.5 160.5t165.5 67.5q76 0 126 -51.5t50 -127.5q0 -93 -70.5 -160t-163.5 -67q-77 0 -127.5 51t-50.5 127zM651 1307q0 -41 28 -70t69 -29q52 0 90.5 36.5t38.5 86.5q0 42 -28 71.5t-69 29.5q-51 0 -90 -37t-39 -88z" />
<glyph unicode="&#x2dc;" horiz-adv-x="768" d="M295 1272q7 56 63 94.5t123 38.5q47 0 108 -31.5t89 -34.5q43 0 81 28t58 30q22 0 37.5 -16.5t15.5 -41.5q0 -53 -60.5 -91.5t-125.5 -41.5q-49 0 -110.5 32t-86.5 34q-42 0 -81 -27.5t-58 -27.5q-23 0 -38 15t-15 40z" />
<glyph unicode="&#x400;" horiz-adv-x="970" d="M164 96l176 1252q5 36 38 66t73 30h555q30 0 49.5 -21t19.5 -51q0 -37 -28 -62.5t-64 -25.5h-487l-68 -479h449q28 0 48.5 -21t20.5 -51q0 -36 -27.5 -62t-64.5 -26h-448l-70 -485h508q31 0 52.5 -20t21.5 -48q0 -36 -30 -64t-67 -28h-542q-57 0 -89.5 22t-25.5 74z M588 1827q0 30 24.5 53t49.5 23q13 0 23.5 -4.5t15 -8t15 -16.5t15.5 -18l135 -166q9 -9 9 -25q0 -33 -24.5 -55t-55.5 -22q-32 0 -60 36l-141 177q-6 9 -6 26z" />
<glyph unicode="&#x401;" horiz-adv-x="970" d="M164 96l176 1252q5 36 38 66t73 30h555q30 0 49.5 -21t19.5 -51q0 -37 -28 -62.5t-64 -25.5h-487l-68 -479h449q28 0 48.5 -21t20.5 -51q0 -36 -27.5 -62t-64.5 -26h-448l-70 -485h508q31 0 52.5 -20t21.5 -48q0 -36 -30 -64t-67 -28h-542q-57 0 -89.5 22t-25.5 74z M520 1708q0 43 33 76t76 33q38 0 62 -24.5t24 -61.5q0 -44 -34.5 -77.5t-78.5 -33.5q-36 0 -59 26t-23 62zM864 1710q0 41 35 74t78 33q37 0 60.5 -24.5t23.5 -61.5q0 -44 -34 -77.5t-77 -33.5q-36 0 -61 26.5t-25 63.5z" />
<glyph unicode="&#x402;" horiz-adv-x="1318" d="M242 1356q0 33 29 61.5t65 28.5h721q30 0 51.5 -21t21.5 -51q0 -35 -29.5 -61.5t-66.5 -26.5h-360l-60 -428q123 53 273 53q181 0 277 -95.5t96 -280.5q0 -245 -120.5 -400t-312.5 -155q-85 0 -138.5 33t-53.5 81q0 33 25.5 56.5t58.5 23.5q17 0 43.5 -17.5t71.5 -17.5 q124 0 193 97.5t69 281.5q0 124 -59.5 179t-184.5 55q-149 0 -262 -58l-88 -633q-5 -32 -32.5 -56.5t-61.5 -24.5q-33 0 -54 24t-16 57l172 1225h-197q-31 0 -51 21t-20 49z" />
<glyph unicode="&#x403;" horiz-adv-x="880" d="M158 63l180 1291q5 35 36 63.5t70 28.5h557q30 0 50 -21t20 -51q0 -36 -27.5 -62t-64.5 -26h-485l-172 -1223q-5 -32 -33 -56.5t-62 -24.5q-33 0 -53.5 24t-15.5 57zM678 1649q0 25 16 41l183 165q5 4 19.5 17.5t19.5 17.5t17 8.5t25 4.5q21 0 38.5 -17.5t17.5 -42.5 q0 -28 -17 -43l-190 -176q-40 -37 -72 -37q-25 0 -41 17t-16 45z" />
<glyph unicode="&#x404;" horiz-adv-x="987" d="M164 504l61 438q35 244 170 383t365 139q135 0 236.5 -50t101.5 -118q0 -32 -25 -55.5t-59 -23.5q-20 0 -32 6.5t-38 27.5q-86 64 -196 64q-166 0 -250 -95.5t-109 -277.5l-18 -137h379q29 0 48 -20t19 -50q0 -37 -26.5 -64.5t-63.5 -27.5h-379l-20 -139 q-26 -182 31 -277.5t223 -95.5q112 0 213 64q11 6 24 13.5t19.5 11t16 6.5t19.5 3q29 0 46.5 -18t17.5 -45q0 -49 -56.5 -91.5t-145.5 -67.5t-185 -25q-230 0 -326 139t-61 383z" />
<glyph unicode="&#x405;" horiz-adv-x="995" d="M102 123q0 33 26.5 60.5t59.5 27.5q21 0 62 -18t102 -36t131 -18q153 0 233.5 77.5t80.5 213.5q0 116 -92 168q-35 20 -93 42t-105.5 38.5t-101 45.5t-90 63t-60.5 91t-24 130q0 206 131 331t345 125q44 0 94 -5.5t107 -18.5t93.5 -41t36.5 -66q0 -34 -27 -60t-67 -26 q-24 0 -57.5 14.5t-82 29t-108.5 14.5q-58 0 -107.5 -13t-92.5 -42t-68 -83.5t-25 -128.5q0 -38 8.5 -67t25 -48.5t29.5 -30.5t32 -22q35 -20 93.5 -42.5t106 -39t101 -45.5t90 -63t60.5 -90.5t24 -128.5q0 -146 -69.5 -256.5t-185.5 -167.5t-259 -57q-52 0 -110 8 t-115.5 24t-94.5 45t-37 66z" />
<glyph unicode="&#x406;" horiz-adv-x="464" d="M158 61l186 1321q5 33 32 57.5t60 24.5q34 0 55.5 -25t16.5 -57l-186 -1321q-5 -32 -33 -56.5t-62 -24.5q-33 0 -53.5 24t-15.5 57z" />
<glyph unicode="&#x407;" horiz-adv-x="464" d="M158 61l186 1321q5 33 32 57.5t60 24.5q34 0 55.5 -25t16.5 -57l-186 -1321q-5 -32 -33 -56.5t-62 -24.5q-33 0 -53.5 24t-15.5 57zM205 1708q0 43 32.5 76t75.5 33q38 0 62 -24.5t24 -61.5q0 -44 -34 -77.5t-78 -33.5q-36 0 -59 26t-23 62zM549 1710q0 41 34.5 74 t77.5 33q37 0 60.5 -24.5t23.5 -61.5q0 -44 -33.5 -77.5t-76.5 -33.5q-36 0 -61 26.5t-25 63.5z" />
<glyph unicode="&#x408;" horiz-adv-x="788" d="M59 61q0 39 28 65t56 26q7 0 47 -7.5t76 -7.5q69 0 117.5 21.5t79 66.5t47.5 100.5t29 135.5l129 921q5 34 32 58t62 24q32 0 53 -25t16 -57l-129 -921q-16 -117 -48.5 -202t-88 -149.5t-141.5 -97t-203 -32.5q-162 0 -162 81z" />
<glyph unicode="&#x409;" horiz-adv-x="1796" d="M29 53q0 48 26 72.5t62 24.5q13 0 27 -3.5t30 -3.5q54 0 87.5 46t55.5 145l220 1032q10 41 35.5 60.5t52.5 19.5h553q32 0 53.5 -24t17.5 -56l-63 -453h192q189 0 296.5 -99.5t107.5 -281.5q0 -80 -17.5 -154.5t-58 -144t-100.5 -120.5t-152 -82t-205 -31h-260 q-40 0 -65 29t-19 69l152 1076h2l14 112h-397l-195 -940q-74 -362 -307 -362q-36 0 -55.5 1.5t-43.5 7.5t-35 21t-11 39zM1077 160h195q86 0 151 24t100.5 60t57.5 86t28.5 93t6.5 91q0 240 -260 240h-193l-69 -486h-2z" />
<glyph unicode="&#x40a;" horiz-adv-x="1736" d="M158 63l186 1319q5 33 32 57.5t60 24.5q34 0 55.5 -25t16.5 -57l-82 -579h518l80 575q4 35 32.5 60.5t61.5 25.5t54 -26t16 -60l-66 -465h195q190 0 296.5 -99.5t106.5 -281.5q0 -80 -17.5 -154.5t-57.5 -144t-100 -120.5t-151 -82t-204 -31h-260q-40 0 -66 29t-20 69 l76 545h-517l-81 -580q-4 -34 -32.5 -58.5t-62.5 -24.5q-33 0 -53.5 24.5t-15.5 58.5zM1018 160h194q86 0 150.5 24t100.5 60t58 86t28.5 93t6.5 91q0 240 -262 240h-194z" />
<glyph unicode="&#x40b;" horiz-adv-x="1318" d="M242 1358q0 30 29 59t65 29h721q30 0 51.5 -21t21.5 -51q0 -35 -29.5 -61.5t-66.5 -26.5h-360l-60 -428q123 53 273 53q205 0 301 -117.5t65 -334.5l-55 -393q-5 -34 -33 -60t-61 -26q-32 0 -53 25.5t-17 60.5l56 391q23 157 -36.5 226t-203.5 69q-147 0 -260 -58 l-88 -633q-5 -32 -32.5 -56.5t-61.5 -24.5q-33 0 -54 24t-16 57l172 1225h-197q-31 0 -51 21t-20 51z" />
<glyph unicode="&#x40c;" horiz-adv-x="1056" d="M158 63l186 1319q5 33 32 57.5t60 24.5q34 0 55.5 -25t16.5 -57l-82 -579h119l516 622q33 39 72 39q31 0 49 -24.5t18 -55.5q0 -19 -16 -47l-518 -616l344 -615q6 -15 6 -28q0 -33 -27.5 -65.5t-64.5 -32.5q-42 0 -62 38l-342 625h-117l-81 -580q-4 -34 -32.5 -58.5 t-62.5 -24.5q-33 0 -53.5 24.5t-15.5 58.5zM715 1649q0 25 16 41l182 165q6 5 16.5 15t15.5 14t13.5 9.5t17 7.5t19.5 2q21 0 38.5 -17.5t17.5 -42.5q0 -28 -17 -43l-190 -176q-40 -37 -72 -37q-25 0 -41 17t-16 45z" />
<glyph unicode="&#x40d;" horiz-adv-x="1206" d="M158 70q-5 -38 17 -64t61 -26q25 0 50 13t40 34l723 1081l-148 -1045q-4 -34 17 -58.5t55 -24.5t60.5 24.5t31.5 58.5l184 1311q5 39 -16 64.5t-59 25.5q-61 0 -93 -49l-723 -1079l148 1044q5 34 -16.5 59t-55.5 25q-33 0 -60 -25t-32 -59zM606 1827q0 30 24.5 53 t49.5 23q13 0 23.5 -4.5t15 -8.5t16 -17t15.5 -18l135 -165q8 -8 8 -25q0 -33 -24.5 -55.5t-55.5 -22.5q-30 0 -59 37l-142 176q-6 9 -6 27z" />
<glyph unicode="&#x40e;" horiz-adv-x="1030" d="M127 51q0 32 25.5 58.5t62.5 27.5q96 4 155.5 49t121.5 156l-244 1020q-2 2 -2 14q0 39 27 63.5t65 24.5q51 0 63 -53l197 -856l426 856q11 25 34 39t48 14q29 0 49.5 -19.5t20.5 -49.5q0 -8 -9 -35l-454 -893q-27 -53 -42.5 -82.5t-40 -75t-41.5 -71t-42 -61.5 t-45.5 -56.5t-47.5 -45.5t-54 -38.5t-59 -26.5t-67.5 -18.5t-74.5 -5.5q-32 0 -52 18t-20 47zM512 1749q-4 37 16 56.5t50 19.5q38 0 55 -33q45 -84 123 -84q73 0 143 84q26 33 68 33q29 0 43 -19.5t0 -56.5q-30 -77 -112.5 -121.5t-160.5 -44.5t-147.5 44.5t-77.5 121.5z " />
<glyph unicode="&#x40f;" horiz-adv-x="1185" d="M162 82l182 1300q5 34 32.5 59t61.5 25q33 0 54 -25t16 -59l-172 -1222h559l172 1222q4 34 33 59t61 25q33 0 54 -25t16 -59l-182 -1300q-4 -32 -33.5 -57t-61.5 -25h-280l-35 -246q-5 -33 -32 -57.5t-60 -24.5q-34 0 -55.5 25t-16.5 57l35 246h-279q-33 0 -53.5 24.5 t-15.5 57.5z" />
<glyph unicode="&#x410;" horiz-adv-x="1124" d="M59 51q0 25 11 41l575 1264q51 108 123 108q42 0 62 -27t30 -81l221 -1264l1 -6q1 -6 1 -10q0 -43 -28.5 -69.5t-69.5 -26.5q-24 0 -46 17t-26 44l-47 285h-518l-127 -285q-11 -27 -37 -44t-49 -17q-33 0 -54.5 19.5t-21.5 51.5zM420 485h422l-115 695z" />
<glyph unicode="&#x411;" horiz-adv-x="1087" d="M164 98l176 1256q5 35 35.5 63.5t68.5 28.5h598q30 0 50 -21t20 -51q0 -36 -27.5 -62t-64.5 -26h-526l-58 -414h236q191 0 298 -95t107 -271q0 -77 -17 -147.5t-57 -136.5t-99.5 -115t-150.5 -78t-204 -29h-301q-40 0 -65 29t-19 69zM336 160h235q85 0 148.5 22t99 54.5 t57.5 78.5t28.5 86t6.5 86q0 226 -262 226h-235z" />
<glyph unicode="&#x412;" horiz-adv-x="1110" d="M164 98l174 1248q6 41 39.5 69.5t73.5 28.5h346q170 0 260 -94.5t90 -233.5q0 -74 -22.5 -133.5t-67.5 -103.5t-97.5 -75.5t-125.5 -60.5q44 -14 74 -26.5t68 -36.5t61.5 -52t40 -72t16.5 -99q0 -93 -37 -176.5t-103 -145.5t-161.5 -98.5t-206.5 -36.5h-338 q-41 0 -65.5 29t-18.5 69zM336 160h250q165 0 253.5 77.5t88.5 204.5q0 108 -76.5 168t-202.5 60h-241zM430 829h236q55 0 110 17.5t102 50t76 86.5t29 121q0 79 -52 129.5t-167 50.5h-270z" />
<glyph unicode="&#x413;" horiz-adv-x="880" d="M158 63l180 1291q5 35 36 63.5t70 28.5h557q30 0 50 -21t20 -51q0 -36 -27.5 -62t-64.5 -26h-485l-172 -1223q-5 -32 -33 -56.5t-62 -24.5q-33 0 -53.5 24t-15.5 57z" />
<glyph unicode="&#x414;" horiz-adv-x="1286" d="M27 -207l36 262q6 44 33.5 74.5t61.5 30.5h59q114 128 193 542l125 664q8 40 35 60t55 20h594q33 0 53.5 -23.5t15.5 -56.5l-170 -1206h51q35 0 55.5 -30.5t14.5 -74.5l-37 -262q-5 -34 -32 -57t-62 -23q-34 0 -54 23t-16 57l29 207h-852l-29 -207q-5 -34 -30.5 -57 t-59.5 -23t-54 23t-15 57zM377 160h577l160 1126h-436l-105 -584q-64 -362 -196 -542z" />
<glyph unicode="&#x415;" horiz-adv-x="970" d="M164 96l176 1252q5 36 38 66t73 30h555q30 0 49.5 -21t19.5 -51q0 -37 -28 -62.5t-64 -25.5h-487l-68 -479h449q28 0 48.5 -21t20.5 -51q0 -36 -27.5 -62t-64.5 -26h-448l-70 -485h508q31 0 52.5 -20t21.5 -48q0 -36 -30 -64t-67 -28h-542q-57 0 -89.5 22t-25.5 74z" />
<glyph unicode="&#x416;" horiz-adv-x="1527" d="M59 59q0 23 17 47l463 615l-289 616q-6 15 -6 29q0 34 26.5 66t63.5 32q40 0 63 -39l301 -622h97l82 579q5 33 32 57.5t60 24.5t54.5 -24.5t16.5 -57.5l-82 -579h93l481 622q29 39 72 39q31 0 49 -24.5t18 -55.5q0 -22 -18 -47l-465 -616l293 -615q6 -15 6 -28 q0 -33 -27.5 -65.5t-64.5 -32.5q-42 0 -62 38l-303 625h-94l-82 -580q-5 -34 -32.5 -58.5t-61.5 -24.5t-54.5 24.5t-15.5 58.5l82 580h-94l-479 -625q-32 -38 -74 -38q-30 0 -48 24.5t-18 54.5z" />
<glyph unicode="&#x417;" horiz-adv-x="993" d="M82 143q0 33 25.5 57.5t56.5 24.5q17 0 39 -14q43 -27 71.5 -42t79 -28.5t107.5 -13.5q163 0 254.5 87t91.5 216q0 213 -322 227q-20 1 -32.5 3t-27.5 8.5t-22.5 20t-7.5 34.5q0 14 2 26t7 20.5t9.5 15t13.5 11t14 7.5t16 4.5t15.5 2.5t16 2t13.5 1q71 7 131.5 24.5 t116 50.5t88 90.5t32.5 133.5q0 87 -54 146t-169 59q-105 0 -192 -41q-16 -7 -44 -23.5t-48 -25t-37 -8.5q-26 0 -44 17t-18 44q0 51 70 95t164.5 66.5t179.5 22.5q87 0 155.5 -29t110 -78t63 -109t21.5 -126q0 -258 -295 -379q110 -39 173 -114t63 -187q0 -90 -37.5 -173.5 t-103 -147.5t-161 -102.5t-204.5 -38.5q-79 0 -163.5 17t-151 56t-66.5 90z" />
<glyph unicode="&#x418;" horiz-adv-x="1206" d="M158 70l184 1310q5 34 32 59t60 25q34 0 55.5 -25t16.5 -59l-148 -1044l723 1079q32 49 93 49q38 0 59 -25.5t16 -64.5l-184 -1311q-5 -34 -31.5 -58.5t-60.5 -24.5t-55 24.5t-17 58.5l148 1045l-723 -1081q-15 -21 -40 -34t-50 -13q-39 0 -61 26t-17 64z" />
<glyph unicode="&#x419;" horiz-adv-x="1206" d="M158 70q-5 -38 17 -64t61 -26q25 0 50 13t40 34l723 1081l-148 -1045q-4 -34 17 -58.5t55 -24.5t60.5 24.5t31.5 58.5l184 1311q5 39 -16 64.5t-59 25.5q-61 0 -93 -49l-723 -1079l148 1044q5 34 -16.5 59t-55.5 25q-33 0 -60 -25t-32 -59zM600 1749q-4 37 16 56.5 t50 19.5q38 0 55 -33q45 -84 123 -84q73 0 143 84q26 33 68 33q29 0 43 -19.5t0 -56.5q-30 -77 -112.5 -121.5t-160.5 -44.5t-147.5 44.5t-77.5 121.5z" />
<glyph unicode="&#x41a;" horiz-adv-x="1056" d="M158 63l186 1319q5 33 32 57.5t60 24.5q34 0 55.5 -25t16.5 -57l-82 -579h119l516 622q33 39 72 39q31 0 49 -24.5t18 -55.5q0 -19 -16 -47l-518 -616l344 -615q6 -15 6 -28q0 -33 -27.5 -65.5t-64.5 -32.5q-42 0 -62 38l-342 625h-117l-81 -580q-4 -34 -32.5 -58.5 t-62.5 -24.5q-33 0 -53.5 24.5t-15.5 58.5z" />
<glyph unicode="&#x41b;" horiz-adv-x="1249" d="M29 53q0 48 26 72.5t62 24.5q13 0 27 -3.5t30 -3.5q54 0 87.5 46t55.5 145l220 1032q10 41 35.5 60.5t52.5 19.5h594q34 0 55 -24t16 -56l-184 -1303q-6 -34 -33 -56.5t-59 -22.5q-35 0 -55.5 22.5t-16.5 56.5l172 1223h-438l-195 -940q-74 -362 -307 -362 q-36 0 -55.5 1.5t-43.5 7.5t-35 21t-11 39z" />
<glyph unicode="&#x41c;" horiz-adv-x="1413" d="M141 59l185 1319q6 37 33.5 61.5t64.5 24.5q61 0 82 -53l278 -856l521 858q34 51 92 51q36 0 57 -25t16 -61l-184 -1319q-4 -32 -32 -55.5t-60 -23.5q-34 0 -55 23.5t-17 55.5l140 998l-428 -705q-30 -49 -86 -49q-57 0 -72 49l-232 705l-139 -998q-4 -32 -33.5 -55.5 t-64.5 -23.5q-32 0 -51.5 23.5t-14.5 55.5z" />
<glyph unicode="&#x41d;" horiz-adv-x="1187" d="M158 63l186 1319q5 33 32 57.5t60 24.5q34 0 55.5 -25t16.5 -57l-82 -579h559l82 579q5 32 32.5 57t59.5 25t54 -25t18 -57l-187 -1319q-5 -34 -32.5 -58.5t-61.5 -24.5q-32 0 -52.5 24.5t-16.5 58.5l82 580h-560l-81 -580q-4 -34 -32.5 -58.5t-62.5 -24.5 q-33 0 -53.5 24.5t-15.5 58.5z" />
<glyph unicode="&#x41e;" horiz-adv-x="1128" d="M164 504l61 438q16 110 55.5 202t104.5 165t163.5 114t221.5 41q99 0 175 -27t122.5 -74.5t75 -113.5t31.5 -143.5t-7 -163.5l-61 -438q-16 -110 -59 -204.5t-111 -166.5t-164.5 -112.5t-210.5 -40.5q-152 0 -250 71t-133 187.5t-14 265.5zM328 504q-24 -168 39.5 -266.5 t216.5 -98.5t243.5 98.5t114.5 266.5l62 438q52 363 -256 363q-307 0 -359 -363z" />
<glyph unicode="&#x41f;" horiz-adv-x="1185" d="M158 63l182 1301q5 33 33 57.5t61 24.5h723q32 0 53.5 -25t16.5 -57l-183 -1301q-5 -34 -32.5 -58.5t-61.5 -24.5q-32 0 -52.5 24.5t-16.5 58.5l172 1223h-559l-172 -1223q-4 -34 -32.5 -58.5t-62.5 -24.5q-33 0 -53.5 24.5t-15.5 58.5z" />
<glyph unicode="&#x420;" horiz-adv-x="1085" d="M158 66l180 1280q6 40 39.5 69t73.5 29h301q108 0 188 -31t125.5 -85.5t67.5 -121.5t22 -147q0 -245 -146 -386t-386 -141h-236l-65 -466q-5 -34 -33 -60t-62 -26q-32 0 -52.5 25.5t-16.5 60.5zM410 692h235q169 0 256.5 88.5t87.5 261.5q0 50 -12.5 91t-40.5 76.5 t-80.5 55t-126.5 19.5h-235z" />
<glyph unicode="&#x421;" horiz-adv-x="985" d="M164 504l61 438q35 244 170 383t365 139q135 0 236.5 -50t101.5 -118q0 -32 -25 -55.5t-59 -23.5q-20 0 -32 6.5t-38 27.5q-86 64 -196 64q-165 0 -249 -95.5t-110 -277.5l-61 -438q-26 -182 31 -277.5t223 -95.5q109 0 215 64q6 4 16 10.5t14 9t11 6t11.5 5t11 2.5 t13.5 1q29 0 46.5 -18t17.5 -45q0 -49 -56.5 -91.5t-145.5 -67.5t-185 -25q-230 0 -326 139t-61 383z" />
<glyph unicode="&#x422;" horiz-adv-x="989" d="M242 1356q0 30 29 59t65 29h721q30 0 51.5 -21t21.5 -51q0 -35 -29.5 -61.5t-66.5 -26.5h-278l-172 -1223q-5 -32 -33 -56.5t-62 -24.5q-33 0 -53.5 24t-15.5 57l172 1223h-279q-31 0 -51 21t-20 51z" />
<glyph unicode="&#x423;" horiz-adv-x="1030" d="M127 51q0 32 25.5 58.5t62.5 27.5q96 4 155.5 49t121.5 156l-244 1020q-2 2 -2 14q0 39 27 63.5t65 24.5q51 0 63 -53l197 -856l426 856q11 25 34 39t48 14q29 0 49.5 -19.5t20.5 -49.5q0 -8 -9 -35l-454 -893q-27 -53 -42.5 -82.5t-40 -75t-41.5 -71t-42 -61.5 t-45.5 -56.5t-47.5 -45.5t-54 -38.5t-59 -26.5t-67.5 -18.5t-74.5 -5.5q-32 0 -52 18t-20 47z" />
<glyph unicode="&#x424;" horiz-adv-x="1536" d="M195 709q0 80 17.5 154.5t57.5 144t100 120.5t152 82t205 31h131l21 141q4 32 33.5 57t60.5 25q36 0 55 -24.5t14 -57.5l-20 -141h135q107 0 186.5 -31t125.5 -85.5t68 -122t22 -148.5q0 -245 -145.5 -385.5t-385.5 -140.5h-133l-37 -267q-5 -32 -32.5 -56.5t-61.5 -24.5 q-33 0 -54 24t-16 57l37 267h-133q-190 0 -296.5 99.5t-106.5 281.5zM360 727q0 -240 261 -240h133l84 594h-133q-86 0 -151 -24t-101 -60t-58 -86t-28.5 -93t-6.5 -91zM918 487h133q169 0 256.5 89t87.5 262q0 50 -12.5 91t-41 76.5t-81 55.5t-125.5 20h-134z" />
<glyph unicode="&#x425;" horiz-adv-x="989" d="M20 55q0 25 19 54l463 643l-258 587q-4 8 -4 35q0 35 26.5 62.5t59.5 27.5q49 0 80 -71l212 -510l357 510q53 71 98 71q27 0 45.5 -20.5t18.5 -50.5t-17 -54l-426 -587l283 -643q8 -16 8 -37q0 -33 -28.5 -62.5t-59.5 -29.5q-48 0 -72 59l-243 582l-408 -582 q-39 -59 -86 -59q-29 0 -48.5 22.5t-19.5 52.5z" />
<glyph unicode="&#x426;" horiz-adv-x="1236" d="M162 82l182 1298q5 34 32.5 59t61.5 25q33 0 54 -25t16 -59l-172 -1220h559l172 1220q4 34 33 59t61 25q33 0 54 -25t16 -59l-172 -1220h82q32 0 53.5 -25t17.5 -57l-45 -322q-4 -34 -33 -59t-61 -25t-53 25t-16 59l34 244h-807q-33 0 -53.5 24.5t-15.5 57.5z" />
<glyph unicode="&#x427;" horiz-adv-x="1120" d="M248 985l55 393q5 34 33 60t61 26q32 0 53 -25.5t17 -60.5l-55 -391q-23 -157 36 -226t203 -69q145 0 260 56l88 630q5 34 33 60t62 26q32 0 52.5 -25.5t16.5 -60.5l-184 -1312q-4 -35 -32.5 -60.5t-61.5 -25.5t-54 26t-16 60l74 520q-131 -54 -275 -54q-205 0 -301 118 t-65 335z" />
<glyph unicode="&#x428;" horiz-adv-x="1556" d="M162 82l182 1298q5 34 32.5 59t61.5 25q33 0 54 -25t16 -59l-172 -1220h381l172 1222q5 33 33 57.5t61 24.5t54 -24.5t16 -57.5l-172 -1222h383l172 1220q4 34 33 59t61 25q33 0 53.5 -25t15.5 -59l-182 -1298q-4 -32 -33 -57t-61 -25h-1092q-33 0 -53.5 24.5t-15.5 57.5 z" />
<glyph unicode="&#x429;" horiz-adv-x="1605" d="M162 82l182 1298q5 34 32.5 59t61.5 25q33 0 54 -25t16 -59l-172 -1220h381l172 1222q5 33 33 57.5t61 24.5t54 -24.5t16 -57.5l-172 -1222h383l172 1220q4 34 33 59t61 25q33 0 53.5 -25t15.5 -59l-172 -1220h82q32 0 54 -25t18 -57l-45 -322q-5 -34 -32.5 -59 t-61.5 -25q-32 0 -53 25t-17 59l35 244h-1176q-33 0 -53.5 24.5t-15.5 57.5z" />
<glyph unicode="&#x42a;" horiz-adv-x="1339" d="M223 1356q0 37 27.5 63.5t64.5 26.5h353q38 0 61.5 -28.5t18.5 -63.5l-62 -441h234q190 0 296.5 -99.5t106.5 -281.5q0 -80 -17.5 -154.5t-57.5 -144t-100 -120.5t-151 -82t-204 -31h-301q-40 0 -65.5 29t-20.5 69l167 1188h-280q-30 0 -50 20t-20 50zM580 160h235 q86 0 150.5 24t100.5 60t58 86t28.5 93t6.5 91q0 240 -262 240h-235z" />
<glyph unicode="&#x42b;" horiz-adv-x="1484" d="M164 98l180 1280q4 35 32 60.5t60 25.5q33 0 54 -26t16 -60l-66 -465h238q189 0 296 -99.5t107 -281.5q0 -80 -17.5 -154.5t-57.5 -144t-100 -120.5t-152 -82t-205 -31h-301q-40 0 -65 29t-19 69zM336 160h235q86 0 151 24t100.5 60t57.5 86t28.5 93t6.5 91 q0 240 -260 240h-235zM1178 61l186 1321q5 33 32 57.5t60 24.5q34 0 55.5 -25t16.5 -57l-187 -1321q-5 -33 -32 -57t-60 -24q-34 0 -55 24.5t-16 56.5z" />
<glyph unicode="&#x42c;" horiz-adv-x="1095" d="M164 98l180 1280q4 35 32 60.5t60 25.5q33 0 54 -26t16 -60l-66 -465h238q189 0 296 -99.5t107 -281.5q0 -80 -17.5 -154.5t-57.5 -144t-100 -120.5t-152 -82t-205 -31h-301q-40 0 -65 29t-19 69zM336 160h235q86 0 151 24t100.5 60t57.5 86t28.5 93t6.5 91 q0 240 -260 240h-235z" />
<glyph unicode="&#x42d;" horiz-adv-x="1019" d="M123 150q0 32 24.5 55.5t59.5 23.5q13 0 21.5 -3.5t23 -14t24.5 -16.5q82 -64 197 -64q165 0 248.5 95t109.5 278l21 139h-381q-30 0 -49 21t-19 51q0 37 28 63.5t63 26.5h380l19 137q25 183 -32 278t-222 95q-109 0 -215 -64q-3 -2 -10 -6.5t-9 -6t-7.5 -5t-7.5 -4.5 l-7 -3.5t-7.5 -3t-6.5 -2t-7 -2t-7.5 -1t-8.5 -0.5q-29 0 -46 18t-17 45q0 49 56.5 91.5t145.5 67.5t185 25q230 0 326 -139t61 -383l-62 -438q-35 -244 -170 -383t-364 -139q-135 0 -236.5 50t-101.5 118z" />
<glyph unicode="&#x42e;" horiz-adv-x="1552" d="M158 63l186 1319q5 33 32 57.5t60 24.5q34 0 55.5 -25t16.5 -57l-82 -579h246l22 160q12 84 37.5 157.5t69 137t101.5 109t137.5 71.5t174.5 26t168 -26t117.5 -71.5t71.5 -108.5t30.5 -137.5t-6.5 -157.5l-67 -480q-20 -142 -85 -254t-178.5 -180.5t-258.5 -68.5 q-88 0 -158 25.5t-115.5 71t-75 108.5t-35 138.5t4.5 159.5l22 162h-246l-81 -582q-4 -34 -32.5 -58.5t-62.5 -24.5q-33 0 -53.5 24.5t-15.5 58.5zM791 483q-23 -159 35.5 -251.5t201.5 -92.5t228 92.5t108 251.5l68 480q48 342 -240 342q-286 0 -334 -342z" />
<glyph unicode="&#x42f;" horiz-adv-x="1148" d="M131 53q0 26 19 53l401 539q-127 26 -196.5 111t-69.5 219q0 68 15.5 132t53 126.5t94 109t145.5 75t200 28.5h315q38 0 63 -29t19 -69l-180 -1282q-5 -35 -31.5 -60.5t-60.5 -25.5t-55.5 26t-16.5 60l80 569h-197l-446 -615q-27 -38 -74 -38q-25 0 -51.5 21.5 t-26.5 49.5zM449 995q0 -98 64 -150t185 -52h250l68 493h-238q-81 0 -142.5 -19.5t-96 -48.5t-56 -70.5t-28 -77t-6.5 -75.5z" />
<glyph unicode="&#x430;" horiz-adv-x="987" d="M145 371l37 260q28 195 135 308.5t301 113.5q182 0 251 -104.5t40 -309.5l-63 -451q-9 -61 28 -61q3 0 8 1t9 1q25 0 38 -17t13 -42q0 -41 -30.5 -60.5t-71.5 -19.5q-47 0 -84 25t-54 69q-167 -100 -294 -100q-150 0 -219 106t-44 281zM305 371q-17 -119 23 -181.5 t133 -62.5q110 0 229 88l68 477q15 111 -25 162t-145 51q-115 0 -170 -63t-76 -211z" />
<glyph unicode="&#x431;" horiz-adv-x="952" d="M141 348l88 629q28 199 141.5 310t325.5 132q15 2 37.5 3t32.5 2.5t31.5 7t49.5 16.5t71 29q12 6 30 6q27 0 44.5 -19t17.5 -47q0 -115 -330 -139q-26 -2 -43 -4.5t-46.5 -10.5t-50.5 -19.5t-47.5 -33.5t-44.5 -51t-33.5 -73t-23.5 -99l-14 -104q101 112 268 112 q162 0 242.5 -103t58.5 -261l-39 -283q-23 -160 -138 -262t-296 -102q-182 0 -268.5 102t-63.5 262zM301 348q-14 -103 35 -160t158 -57t174.5 57.5t79.5 159.5l38 285q14 103 -30.5 159t-151.5 56t-176 -54.5t-86 -150.5z" />
<glyph unicode="&#x432;" horiz-adv-x="958" d="M141 348l49 342q23 160 141.5 262.5t307.5 102.5q152 0 232.5 -73t80.5 -194q0 -195 -178 -260q135 -51 135 -198q0 -155 -115.5 -250.5t-308.5 -95.5q-194 0 -280.5 101t-63.5 263zM301 348q-14 -109 37 -163t174 -54q240 0 240 193q0 133 -189 133h-248zM336 592h252 q205 0 205 172q0 143 -183 143q-117 0 -181.5 -56t-78.5 -159z" />
<glyph unicode="&#x433;" horiz-adv-x="831" d="M131 238q0 74 21.5 131.5t53.5 92t81.5 63.5t91 43.5t98.5 34t88 34.5q69 32 93 64.5t24 89.5q0 120 -164 120q-77 0 -160 -37q-20 -10 -39 -10q-28 0 -45.5 19.5t-17.5 46.5q0 33 29 58t74.5 38.5t93 20t92.5 6.5q143 0 218 -68t75 -184q0 -74 -24 -132t-60 -92.5 t-88 -62.5t-97.5 -43t-100.5 -34t-85 -34q-46 -24 -70 -56.5t-24 -92.5q0 -129 168 -129q86 0 211 47q12 4 22 4q31 0 48.5 -19.5t17.5 -45.5q0 -35 -34 -61.5t-86.5 -40t-103 -19.5t-96.5 -6q-151 0 -228 67t-77 187z" />
<glyph unicode="&#x434;" d="M141 383q0 120 33.5 227.5t93.5 189t151 129.5t199 48q71 0 147 -22t130 -74q63 421 -287 456q-9 1 -15 2t-15.5 5.5t-12.5 11.5t-6.5 20t2.5 31q8 35 33 50.5t86 15.5q190 0 294.5 -148.5t80.5 -429.5q-22 -264 -58.5 -435.5t-100 -280.5t-152 -154t-218.5 -45 q-194 0 -289.5 110t-95.5 293zM303 406q0 -125 57.5 -200t180.5 -75q141 0 210.5 103t104.5 341l21 140q-38 51 -115.5 82.5t-149.5 31.5q-138 0 -223.5 -116.5t-85.5 -306.5z" />
<glyph unicode="&#x435;" horiz-adv-x="886" d="M137 324l56 383q23 154 133.5 250t287.5 96q147 0 223 -74t76 -205q0 -169 -95.5 -263.5t-297.5 -94.5q-102 0 -207 18l-16 -121q-12 -88 38.5 -138t158.5 -50q59 0 105.5 13.5t115.5 43.5q12 6 28 6q27 0 44.5 -18.5t17.5 -44.5q0 -37 -37.5 -66t-95 -44.5t-113.5 -23 t-104 -7.5q-169 0 -254 95.5t-64 244.5zM330 565q106 -14 215 -14q209 0 209 205q0 151 -164 151q-99 0 -162.5 -49.5t-75.5 -136.5z" />
<glyph unicode="&#x436;" horiz-adv-x="1245" d="M57 45q0 31 19 53l315 416l-198 416q-10 14 -5 47q6 30 29.5 48.5t54.5 18.5q45 0 62 -38l190 -404h103l51 365q5 33 31 56.5t59 23.5q34 0 54.5 -24t15.5 -56l-52 -365h101l307 404q23 38 70 38q31 0 49 -16.5t18 -44.5q0 -32 -18 -53l-316 -416l197 -416q10 -20 6 -47 q-6 -30 -29.5 -48.5t-54.5 -18.5q-44 0 -61 39l-211 444h-76l-57 -404q-4 -34 -30 -56.5t-60 -22.5t-54 22.5t-16 56.5l57 404h-76l-337 -444q-33 -39 -70 -39q-31 0 -49.5 16.5t-18.5 44.5z" />
<glyph unicode="&#x437;" horiz-adv-x="835" d="M94 96q0 30 23 55t69 25q9 0 17 -4q115 -47 217 -47q213 0 213 186q0 132 -219 144q-27 1 -43 4t-31.5 16.5t-15.5 38.5q0 20 7 34.5t13.5 21.5t24 12.5t24 6t26.5 2.5q6 1 9 1q73 6 125 26.5t78.5 50.5t37.5 60.5t11 63.5q0 118 -170 118q-84 0 -176 -37 q-23 -10 -39 -10q-28 0 -46 19t-18 45q0 33 30.5 58.5t79 39.5t98 20.5t96.5 6.5q148 0 224.5 -68t76.5 -184q0 -231 -232 -273q184 -36 184 -209q0 -153 -101.5 -244t-293.5 -91q-44 0 -90.5 5t-96 16.5t-81 35t-31.5 55.5z" />
<glyph unicode="&#x438;" horiz-adv-x="1042" d="M205 371l84 598q5 34 29 56t61 22t56 -22.5t14 -55.5l-84 -598q-17 -118 22 -181t131 -63q119 0 236 68q0 25 4 57l100 717q5 34 28.5 56t61.5 22t56.5 -22t13.5 -56l-100 -717q-6 -40 -5.5 -66.5t2 -34.5t10 -23.5t9.5 -18.5q8 -24 8 -35q0 -31 -25.5 -54.5t-60.5 -23.5 q-50 0 -80 61q-137 -73 -301 -73q-159 0 -227 104.5t-43 282.5z" />
<glyph unicode="&#x439;" horiz-adv-x="1042" d="M205 371l84 598q5 34 29 56t61 22t56 -22.5t14 -55.5l-84 -598q-17 -118 22 -181t131 -63q119 0 236 68q0 25 4 57l100 717q5 34 28.5 56t61.5 22t56.5 -22t13.5 -56l-100 -717q-6 -40 -5.5 -66.5t2 -34.5t10 -23.5t9.5 -18.5q8 -24 8 -35q0 -31 -25.5 -54.5t-60.5 -23.5 q-50 0 -80 61q-137 -73 -301 -73q-159 0 -227 104.5t-43 282.5zM461 1337q-4 37 16 56.5t49 19.5q39 0 56 -33q45 -84 123 -84q73 0 143 84q26 33 67 33q29 0 43 -19.5t0 -56.5q-30 -77 -112 -121.5t-160 -44.5t-147.5 44.5t-77.5 121.5z" />
<glyph unicode="&#x43a;" horiz-adv-x="892" d="M158 63l127 904q5 33 32 56.5t60 23.5t52.5 -23.5t14.5 -56.5l-51 -365h127l322 404q28 38 69 38q30 0 49 -17t19 -44q0 -32 -18 -53l-340 -416l221 -416q10 -20 6 -47q-6 -30 -29.5 -48.5t-54.5 -18.5q-42 0 -62 39l-229 444h-98l-58 -404q-4 -34 -30 -56.5t-60 -22.5 t-53.5 22.5t-15.5 56.5z" />
<glyph unicode="&#x43b;" horiz-adv-x="1073" d="M31 49q0 44 26.5 67t61.5 23q6 0 12.5 -1t13.5 -1q54 0 87 44.5t55 140.5l143 632q10 41 35.5 60.5t52.5 19.5h471q34 0 54.5 -24t15.5 -56l-125 -891q-4 -34 -31 -56.5t-61 -22.5t-53.5 22.5t-14.5 56.5l117 836h-326l-125 -565q-75 -344 -293 -344q-28 0 -44 1.5 t-35 6.5t-28 18t-9 33z" />
<glyph unicode="&#x43c;" horiz-adv-x="1310" d="M158 63l127 898q5 37 32 61.5t64 24.5q53 0 76 -54l250 -612l421 612q38 54 89 54q37 0 58.5 -24.5t16.5 -61.5l-127 -898q-4 -32 -31.5 -55.5t-58.5 -23.5q-33 0 -52.5 23t-14.5 56l90 637l-334 -481q-32 -49 -86 -49h-4q-51 0 -70 49l-198 481l-91 -637 q-4 -32 -32 -55.5t-60 -23.5t-51 23t-14 56z" />
<glyph unicode="&#x43d;" horiz-adv-x="1052" d="M158 63l127 904q5 33 32 56.5t60 23.5t52.5 -23.5t14.5 -56.5l-51 -365h434l52 365q5 33 32 56.5t60 23.5t52.5 -23.5t14.5 -56.5l-127 -904q-4 -34 -30 -56.5t-60 -22.5t-53.5 22.5t-15.5 56.5l57 404h-434l-58 -404q-4 -34 -30 -56.5t-60 -22.5t-53.5 22.5t-15.5 56.5z " />
<glyph unicode="&#x43e;" horiz-adv-x="952" d="M141 348l49 342q23 160 138.5 262.5t296.5 102.5t267.5 -102.5t63.5 -262.5l-49 -342q-23 -160 -138 -262t-296 -102q-182 0 -268.5 102t-63.5 262zM301 348q-14 -103 35 -160t158 -57t174.5 57.5t79.5 159.5l49 344q14 101 -36 158t-159 57t-173.5 -57t-78.5 -158z" />
<glyph unicode="&#x43f;" horiz-adv-x="1032" d="M158 63l125 891q5 33 32 56.5t60 23.5h573q33 0 53 -23.5t15 -56.5l-125 -891q-4 -34 -30 -56.5t-60 -22.5t-54 22.5t-16 56.5l117 836h-414l-117 -836q-4 -34 -30 -56.5t-60 -22.5t-53.5 22.5t-15.5 56.5z" />
<glyph unicode="&#x440;" horiz-adv-x="978" d="M106 -362l158 1118q13 91 -12 143q-10 17 -10 33q0 33 26 56.5t56 23.5q46 0 73 -49q180 90 312 90q158 0 227.5 -105.5t44.5 -281.5l-39 -267q-28 -198 -121.5 -305.5t-277.5 -107.5q-112 0 -221 39l-56 -387q-5 -34 -29 -56t-61 -22t-56 22.5t-14 55.5zM342 168 q41 -21 97.5 -32t101.5 -11q111 0 165.5 64.5t75.5 209.5l39 267q35 243 -166 243q-109 0 -231 -69q4 -60 0 -84z" />
<glyph unicode="&#x441;" horiz-adv-x="798" d="M143 212.5q-14 68.5 0 147.5l43 310q23 168 130 272.5t290 104.5q39 0 81.5 -6t85.5 -18.5t71 -36.5t28 -56q0 -31 -23.5 -54.5t-55.5 -23.5q-21 0 -31 6q-3 1 -17 8.5t-18 9t-17 7.5t-19 7.5t-18.5 5.5t-22 5t-22.5 2.5t-26 1.5q-225 0 -256 -235l-45 -310 q-15 -116 29.5 -175.5t161.5 -59.5q12 0 23 0.5t22.5 3t19 3.5t20.5 5.5t17.5 5.5t19.5 7t16.5 6.5t18.5 7.5l17 8q12 6 32 6q26 0 44 -18t18 -43q0 -36 -33 -63.5t-83 -41.5t-98 -21t-89 -7q-93 0 -161 29t-103.5 80t-49.5 119.5z" />
<glyph unicode="&#x442;" horiz-adv-x="1593" d="M166 63l98 697q6 40 5.5 66.5t-2 34.5t-10 23.5t-9.5 18.5q-10 30 -10 35q0 32 25.5 55t60.5 23q48 0 75 -55q155 92 312 92t223 -105q150 105 311 105q163 0 239 -94.5t54 -253.5l-72 -512q-9 -67 15 -97q10 -15 10 -33q0 -32 -26 -55.5t-60 -23.5q-129 0 -98 209 l71 507q13 91 -27 148t-130 57q-65 0 -131.5 -30.5t-110.5 -77.5q3 -48 -2 -92l-90 -642q-5 -34 -28.5 -55.5t-61.5 -21.5t-56.5 21.5t-13.5 55.5l84 594q9 74 6 129t-37.5 87t-103.5 32q-64 0 -131.5 -23.5t-118.5 -58.5q0 -45 -2 -63l-98 -697q-5 -34 -28.5 -55.5 t-61.5 -21.5t-56.5 21.5t-13.5 55.5z" />
<glyph unicode="&#x443;" horiz-adv-x="1042" d="M203 -342q0 31 24 54.5t56 23.5q15 0 30 -6q31 -16 48 -24t47.5 -15.5t64.5 -7.5q225 0 256 235l21 143q-128 -75 -273 -75q-328 0 -274 372l84 611q5 33 30 55.5t62 22.5t54.5 -22t12.5 -56l-84 -611q-32 -233 168 -233q142 0 242 94l105 750q5 34 29.5 56t62.5 22 t55 -22t12 -56l-147 -1051q-23 -168 -129 -272.5t-289 -104.5q-55 0 -112 9.5t-106.5 37.5t-49.5 70z" />
<glyph unicode="&#x444;" horiz-adv-x="1198" d="M156 451l22 155q29 198 157.5 322.5t330.5 124.5l49 352q5 33 31 56.5t59 23.5q34 0 54 -23t15 -57l-49 -352h4q136 0 225 -59.5t122 -159t14 -228.5l-23 -155q-30 -208 -158.5 -337.5t-330.5 -129.5h-2l-49 -344q-4 -34 -31 -57t-61 -23q-33 0 -53 23.5t-15 56.5l49 344 q-204 0 -297 130t-63 337zM315 451q-22 -150 34 -235t186 -85l108 774q-129 0 -206.5 -78.5t-98.5 -218.5zM694 131h4q129 0 208.5 84.5t101.5 235.5l22 157q21 139 -36 218t-187 79h-4z" />
<glyph unicode="&#x445;" horiz-adv-x="882" d="M59 53q0 25 17 45l346 426l-211 406q-8 16 -8 28q0 33 28 61t64 28q16 0 28.5 -5.5t23 -18.5t15 -21t13.5 -25l162 -318l262 334q21 28 39.5 41t44.5 13q27 0 47 -19.5t20 -48.5q0 -28 -16 -47l-326 -404l228 -426q6 -12 6 -26q0 -36 -27.5 -64t-66.5 -28q-27 0 -41.5 12 t-28.5 43l-182 356l-293 -370q-33 -41 -72 -41q-31 0 -51.5 19.5t-20.5 49.5z" />
<glyph unicode="&#x446;" horiz-adv-x="1087" d="M205 371l84 598q5 34 29 56t61 22t56 -22.5t14 -55.5l-84 -598q-17 -118 22 -181t131 -63q121 0 246 72q-6 55 4 131l90 639q5 34 28.5 56t61.5 22t56.5 -22t13.5 -56l-90 -639q-27 -203 78 -203q34 0 54 -23t15 -57l-37 -262q-4 -34 -31 -57t-61 -23t-53 23t-14 57 l30 225q-51 11 -102 66l2 -2q-156 -90 -334 -90q-159 0 -227 104.5t-43 282.5z" />
<glyph unicode="&#x447;" horiz-adv-x="958" d="M188 678l41 289q5 33 31 56.5t59 23.5q34 0 54.5 -24t15.5 -56l-41 -289q-7 -32 -2.5 -62t17.5 -53.5t49 -38t92 -14.5q69 0 221 29l59 428q5 33 31 56.5t59 23.5q34 0 54.5 -24t15.5 -56l-127 -904q-4 -34 -31 -56.5t-61 -22.5t-53.5 22.5t-14.5 56.5l48 340 q-118 -28 -213 -28q-178 0 -251.5 78.5t-52.5 224.5z" />
<glyph unicode="&#x448;" horiz-adv-x="1581" d="M195 326l90 643q5 33 30 55.5t62 22.5t54.5 -22t12.5 -56l-90 -639q-13 -90 27.5 -147.5t130.5 -57.5q63 0 129.5 30t110.5 76q-3 37 4 95l90 643q5 33 30 55.5t62 22.5t55 -22t13 -56l-84 -596q-9 -74 -6 -129t37.5 -87t103.5 -32q61 0 126.5 22.5t114.5 55.5l109 766 q5 33 30 55.5t62 22.5t55 -22t13 -56l-103 -736q-6 -41 2 -67t33 -55q10 -13 10 -31q0 -35 -26 -58.5t-56 -23.5q-67 0 -100 65q-153 -86 -305 -86q-84 0 -137 25.5t-86 77.5q-157 -103 -312 -103q-162 0 -238 95t-54 254z" />
<glyph unicode="&#x449;" horiz-adv-x="1648" d="M195 326l90 643q5 33 30 55.5t62 22.5t54.5 -22t12.5 -56l-90 -639q-13 -90 27.5 -147.5t130.5 -57.5q65 0 132 26t110 66q-7 54 2 109l90 643q5 33 30 55.5t62 22.5t55 -22t13 -56l-84 -596q-9 -74 -6 -129t37.5 -87t103.5 -32q65 0 134 24t122 60q-4 67 4 121l90 639 q5 34 29.5 56t62.5 22t55.5 -22t12.5 -56l-90 -639q-27 -203 79 -203q34 0 53.5 -23t14.5 -57l-37 -262q-5 -34 -30.5 -57t-59.5 -23t-54 23t-16 57l31 225q-60 13 -104 70q-163 -103 -332 -103q-84 0 -137 25.5t-86 77.5q-157 -103 -312 -103q-162 0 -238 95t-54 254z" />
<glyph unicode="&#x44a;" horiz-adv-x="1081" d="M156 954q0 33 26 56.5t58 23.5h256q33 0 53.5 -23.5t15.5 -56.5l-49 -350q94 60 217 60q172 0 257 -98t63 -249q-22 -146 -134.5 -239.5t-281.5 -93.5q-178 0 -259.5 101.5t-58.5 262.5l76 543h-176q-28 0 -45.5 17.5t-17.5 45.5zM479 348q-17 -103 28.5 -160t149.5 -57 q112 0 176 60.5t64 162.5q0 77 -49 119.5t-148 42.5q-92 0 -148 -35t-67 -100z" />
<glyph unicode="&#x44b;" horiz-adv-x="1339" d="M199 348l86 619q5 33 32 56.5t60 23.5t52.5 -23.5t14.5 -56.5l-51 -363q97 60 219 60q172 0 257 -98t63 -249q-22 -146 -134.5 -239.5t-281.5 -93.5q-178 0 -259 101.5t-58 262.5zM358 348q-15 -103 30 -160t149 -57q112 0 175.5 60.5t63.5 162.5q0 77 -48.5 119.5 t-147.5 42.5q-91 0 -148.5 -34t-66.5 -95zM1036 63l127 904q5 33 32 56.5t60 23.5t53 -23.5t15 -56.5l-127 -904q-4 -34 -30 -56.5t-60 -22.5t-54 22.5t-16 56.5z" />
<glyph unicode="&#x44c;" horiz-adv-x="966" d="M199 348l86 619q5 33 32 56.5t60 23.5t52.5 -23.5t14.5 -56.5l-51 -363q97 60 219 60q172 0 257 -98t63 -249q-22 -146 -134.5 -239.5t-281.5 -93.5q-178 0 -259 101.5t-58 262.5zM358 348q-12 -104 32 -160.5t147 -56.5q112 0 175.5 60.5t63.5 162.5q0 77 -48.5 119.5 t-147.5 42.5q-93 0 -152 -35.5t-66 -99.5z" />
<glyph unicode="&#x44d;" horiz-adv-x="804" d="M74 100q0 31 24 54.5t56 23.5q14 0 32 -6q35 -17 54 -24.5t53 -15t72 -7.5q105 0 162.5 65t76.5 191l10 68h-313q-29 0 -47 17.5t-18 45.5q0 33 24.5 56.5t58.5 23.5h314l8 57q18 126 -21 191t-145 65q-38 0 -74 -7.5t-58 -15.5t-60 -24q-18 -6 -35 -6q-26 0 -43 18 t-17 43q0 36 35 63.5t88 42t104.5 21.5t96.5 7q117 0 188.5 -54t94 -141t6.5 -203l-37 -268q-25 -178 -127 -287.5t-275 -109.5q-42 0 -88 6t-93 18t-77 36t-30 56z" />
<glyph unicode="&#x44e;" horiz-adv-x="1394" d="M158 63l127 904q5 33 32 56.5t60 23.5t52.5 -23.5t14.5 -56.5l-51 -365h225l13 86q23 160 138 262.5t296 102.5t268 -102.5t64 -262.5l-47 -340q-23 -160 -138 -262t-297 -102q-181 0 -267.5 102t-63.5 262l16 119h-225l-58 -404q-4 -34 -30 -56.5t-60 -22.5t-53.5 22.5 t-15.5 56.5zM743 348q-14 -103 35 -160t158 -57t174.5 57.5t79.5 159.5l47 342q14 101 -35 158t-158 57t-174 -57t-79 -158z" />
<glyph unicode="&#x44f;" horiz-adv-x="997" d="M109 45q0 32 18 53l272 336q-190 44 -190 246q0 161 100 257.5t287 96.5h315q33 0 53 -23.5t15 -56.5l-125 -891q-5 -33 -31 -56t-59 -23q-34 0 -54.5 23.5t-15.5 55.5l51 359h-180l-319 -399q-33 -39 -70 -39q-31 0 -49 16.5t-18 44.5zM367 698q0 -141 188 -141h209 l47 340h-231q-104 0 -158.5 -50t-54.5 -149z" />
<glyph unicode="&#x450;" horiz-adv-x="886" d="M137 324q-21 -149 64 -244.5t254 -95.5q48 0 104 7.5t113.5 23t95 44.5t37.5 66q0 26 -17.5 44.5t-44.5 18.5q-16 0 -28 -6q-69 -30 -115.5 -43.5t-105.5 -13.5q-108 0 -158.5 50t-38.5 138l16 121q105 -18 207 -18q202 0 297.5 94.5t95.5 263.5q0 131 -76 205t-223 74 q-177 0 -287.5 -96t-133.5 -250zM330 565l22 156q12 87 75.5 136.5t162.5 49.5q164 0 164 -151q0 -205 -209 -205q-109 0 -215 14zM442 1415q0 30 24.5 53t49.5 23q13 0 24 -4.5t15 -8t15.5 -17t15.5 -17.5l135 -166q8 -8 8 -25q0 -33 -24.5 -55t-55.5 -22t-59 36l-141 177 q-7 11 -7 26z" />
<glyph unicode="&#x451;" horiz-adv-x="886" d="M137 324q-21 -149 64 -244.5t254 -95.5q48 0 104 7.5t113.5 23t95 44.5t37.5 66q0 26 -17.5 44.5t-44.5 18.5q-16 0 -28 -6q-69 -30 -115.5 -43.5t-105.5 -13.5q-108 0 -158.5 50t-38.5 138l16 121q105 -18 207 -18q202 0 297.5 94.5t95.5 263.5q0 131 -76 205t-223 74 q-177 0 -287.5 -96t-133.5 -250zM330 565l22 156q12 87 75.5 136.5t162.5 49.5q164 0 164 -151q0 -205 -209 -205q-109 0 -215 14zM399 1296q0 43 33 76t76 33q38 0 62 -24.5t24 -61.5q0 -44 -34.5 -77.5t-78.5 -33.5q-36 0 -59 26t-23 62zM743 1298q0 41 35 74t78 33 q37 0 60.5 -24.5t23.5 -61.5q0 -44 -34 -77.5t-77 -33.5q-36 0 -61 26.5t-25 63.5z" />
<glyph unicode="&#x452;" horiz-adv-x="1191" d="M225 1233q0 34 26.5 59t61.5 25h176l15 100q5 32 31 56t59 24q34 0 53.5 -23t14.5 -57l-15 -100h176q27 0 45.5 -20t18.5 -48q0 -33 -26 -57.5t-60 -24.5h-174l-37 -262q127 86 268 86q159 0 224.5 -103t41.5 -278l-77 -559q-28 -197 -120.5 -318t-234.5 -147 q-16 -2 -39 -2q-25 0 -41.5 14.5t-19.5 39.5q-4 37 20 59.5t54 28.5q91 26 144.5 99.5t74.5 217.5l80 565q17 119 -17.5 176.5t-128.5 57.5q-67 0 -135.5 -30t-118.5 -87l-92 -662q-4 -34 -30 -56.5t-60 -22.5t-53.5 22.5t-14.5 56.5l156 1104h-180q-29 0 -47.5 19t-18.5 47 z" />
<glyph unicode="&#x453;" horiz-adv-x="831" d="M131 238q0 -120 77 -187t228 -67q46 0 96.5 6t103 19.5t86.5 40t34 61.5q0 26 -17.5 45.5t-48.5 19.5q-10 0 -22 -4q-125 -47 -211 -47q-168 0 -168 129q0 60 24 92.5t70 56.5q30 15 85 34t100.5 34t97.5 43t88 62.5t60 92.5t24 132q0 116 -75 184t-218 68 q-45 0 -92.5 -6.5t-93 -20t-74.5 -38.5t-29 -58q0 -27 17.5 -46.5t45.5 -19.5q19 0 39 10q83 37 160 37q164 0 164 -120q0 -57 -24 -89.5t-93 -64.5q-31 -15 -88 -34.5t-98.5 -34t-91 -43.5t-81.5 -63.5t-53.5 -92t-21.5 -131.5zM479 1237q0 24 17 41l182 166q5 5 14 13 t13 11.5t11.5 9t13 7.5t13.5 4t17 2q21 0 38 -17t17 -42q0 -29 -16 -43l-191 -177q-39 -36 -71 -36q-25 0 -41.5 17t-16.5 44z" />
<glyph unicode="&#x454;" horiz-adv-x="798" d="M145 381l39 268q26 178 127.5 288t274.5 110q41 0 87 -6t93 -18.5t77.5 -36.5t30.5 -56q0 -31 -24 -54.5t-55 -23.5q-15 0 -33 6q-34 16 -54 24t-54 15.5t-72 7.5q-106 0 -163 -65t-75 -191l-8 -57h313q28 0 46 -18t18 -46q0 -33 -25 -56t-59 -23h-314l-10 -68 q-40 -256 168 -256q38 0 74 7.5t59 15.5t60 24q18 6 32 6q27 0 44.5 -18t17.5 -43q0 -36 -35 -63.5t-88 -41.5t-104.5 -21t-96.5 -7q-117 0 -189.5 53.5t-95.5 141t-6 202.5z" />
<glyph unicode="&#x455;" horiz-adv-x="851" d="M111 94q0 30 24.5 56t61.5 26q8 0 20 -4q112 -47 199 -47q98 0 154.5 43t56.5 131q0 71 -60 104q-23 14 -64.5 30.5t-77.5 29t-77 35.5t-70 49.5t-48 70.5t-19 99q0 150 100 243t277 93q41 0 83.5 -5.5t83 -17.5t66 -34t25.5 -50q0 -33 -25.5 -57.5t-60.5 -24.5 q-15 0 -35 10q-27 13 -42 19t-44 12t-64 6q-204 0 -204 -163q0 -69 80 -111q26 -14 80 -35t91.5 -39t78 -48t62 -77.5t21.5 -111.5q0 -157 -101 -249.5t-288 -92.5q-43 0 -87.5 5t-91 16.5t-76 34.5t-29.5 54z" />
<glyph unicode="&#x456;" horiz-adv-x="501" d="M199 193l108 774q5 33 31 56.5t59 23.5q34 0 54.5 -24t15.5 -56l-109 -774q-9 -67 15 -97q10 -15 10 -33q0 -32 -26 -55.5t-60 -23.5q-129 0 -98 209zM344 1358q0 44 34 76t79 32q38 0 62 -24.5t24 -61.5q0 -44 -34 -77t-79 -33q-38 0 -62 25.5t-24 62.5z" />
<glyph unicode="&#x457;" horiz-adv-x="501" d="M127 1255q0 47 37 83t86 36q41 0 67.5 -27t26.5 -67q0 -51 -37 -87t-88 -36q-39 0 -65.5 29t-26.5 69zM197 193l108 774q5 33 31 56.5t59 23.5q34 0 54.5 -24t15.5 -56l-109 -774q-9 -67 15 -97q10 -15 10 -33q0 -32 -26 -55.5t-60 -23.5q-129 0 -98 209zM510 1255 q0 47 38.5 83t86.5 36q41 0 67.5 -27t26.5 -67q0 -50 -37.5 -86.5t-87.5 -36.5q-41 0 -67.5 28.5t-26.5 69.5z" />
<glyph unicode="&#x458;" horiz-adv-x="501" d="M-90 -362q-4 37 20 59.5t54 28.5q91 20 141.5 73.5t64.5 161.5l142 1006q5 33 32 56.5t60 23.5t53 -23.5t15 -56.5l-140 -998q-23 -162 -112.5 -262.5t-229.5 -120.5q-16 -2 -39 -2q-25 0 -41.5 14.5t-19.5 39.5zM369 1358q0 44 34 76t80 32q37 0 60.5 -24.5t23.5 -61.5 q0 -44 -33 -77t-79 -33q-37 0 -61.5 25.5t-24.5 62.5z" />
<glyph unicode="&#x459;" horiz-adv-x="1509" d="M41 49q0 44 26.5 67t61.5 23q6 0 13 -1t14 -1q54 0 86.5 44t54.5 141l143 632q10 41 35.5 60.5t52.5 19.5h430q34 0 54.5 -24t15.5 -56l-47 -342h166q328 0 328 -258q0 -161 -101 -257.5t-287 -96.5h-274q-33 0 -53 23.5t-15 56.5l115 819h-285l-124 -565 q-75 -344 -293 -344q-28 0 -44 1.5t-35.5 6.5t-28.5 18t-9 33zM913 137h191q104 0 158.5 50t54.5 149q0 141 -189 141h-167z" />
<glyph unicode="&#x45a;" horiz-adv-x="1478" d="M158 63l127 904q5 33 32 56.5t60 23.5t52.5 -23.5t14.5 -56.5l-51 -365h393l52 365q5 33 32 56.5t60 23.5t52.5 -23.5t14.5 -56.5l-51 -365h189q309 0 309 -248q0 -160 -95.5 -257t-271.5 -97h-295q-33 0 -53.5 23.5t-15.5 56.5l55 387h-393l-58 -404q-4 -34 -30 -56.5 t-60 -22.5t-53.5 22.5t-15.5 56.5zM881 137h211q192 0 192 199q0 131 -168 131h-188z" />
<glyph unicode="&#x45b;" horiz-adv-x="1191" d="M225 1233q0 34 26.5 59t61.5 25h176l15 100q5 32 31 56t59 24q34 0 53.5 -23t14.5 -57l-15 -100h176q27 0 45.5 -20t18.5 -48q0 -33 -26 -57.5t-60 -24.5h-174l-37 -262q127 86 268 86q159 0 227 -92.5t45 -247.5l-65 -458q-9 -66 16 -97q9 -14 9 -33q0 -32 -25 -55.5 t-59 -23.5q-132 0 -101 209l66 456q14 97 -22 145t-130 48q-67 0 -135.5 -30t-118.5 -87l-92 -662q-4 -34 -30 -56.5t-60 -22.5t-53.5 22.5t-14.5 56.5l156 1104h-180q-29 0 -47.5 19t-18.5 47z" />
<glyph unicode="&#x45c;" horiz-adv-x="892" d="M158 63l127 904q5 33 32 56.5t60 23.5t52.5 -23.5t14.5 -56.5l-51 -365h127l322 404q28 38 69 38q30 0 49 -17t19 -44q0 -32 -18 -53l-340 -416l221 -416q10 -20 6 -47q-6 -30 -29.5 -48.5t-54.5 -18.5q-42 0 -62 39l-229 444h-98l-58 -404q-4 -34 -30 -56.5t-60 -22.5 t-53.5 22.5t-15.5 56.5zM602 1237q0 25 16 41l183 166q5 5 14 13t13 11.5t11.5 9t13 7.5t13.5 4t17 2q21 0 38 -17t17 -42q0 -29 -16 -43l-191 -177q-39 -36 -72 -36q-25 0 -41 17t-16 44z" />
<glyph unicode="&#x45d;" horiz-adv-x="1085" d="M205 371l84 598q5 34 29 56t61 22t56 -22.5t14 -55.5l-84 -598q-17 -118 22 -181t131 -63q119 0 236 68q0 25 4 57l100 717q5 34 28.5 56t61.5 22t56.5 -22t13.5 -56l-100 -717q-6 -40 -5.5 -66.5t2 -34.5t10 -23.5t9.5 -18.5q8 -24 8 -35q0 -31 -25.5 -54.5t-60.5 -23.5 q-50 0 -80 61q-137 -73 -301 -73q-159 0 -227 104.5t-43 282.5zM537 1415q0 31 24 53.5t49 22.5q13 0 24 -4.5t15 -8t15.5 -17t15.5 -17.5l135 -166q8 -8 8 -25q0 -33 -24.5 -55t-55.5 -22t-59 36l-141 177q-6 9 -6 26z" />
<glyph unicode="&#x45e;" horiz-adv-x="1042" d="M203 -342q0 31 24 54.5t56 23.5q15 0 30 -6q31 -16 48 -24t47.5 -15.5t64.5 -7.5q225 0 256 235l21 143q-128 -75 -273 -75q-328 0 -274 372l84 611q5 33 30 55.5t62 22.5t54.5 -22t12.5 -56l-84 -611q-32 -233 168 -233q142 0 242 94l105 750q5 34 29.5 56t62.5 22 t55 -22t12 -56l-147 -1051q-23 -168 -129 -272.5t-289 -104.5q-55 0 -112 9.5t-106.5 37.5t-49.5 70zM460 1337q-4 37 16 56.5t50 19.5q38 0 55 -33q45 -84 123 -84q73 0 143 84q26 33 68 33q29 0 43 -19.5t0 -56.5q-30 -77 -112 -121.5t-160 -44.5t-148 44.5t-78 121.5z " />
<glyph unicode="&#x45f;" horiz-adv-x="1032" d="M162 80l125 891q4 34 31 57t61 23t53 -23t14 -57l-116 -836h413l117 836q4 34 31 57t61 23t53.5 -23t14.5 -57l-125 -891q-5 -33 -32 -56.5t-60 -23.5h-207l-29 -207q-5 -34 -30.5 -57t-59.5 -23t-54 23t-15 57l28 207h-207q-33 0 -52.5 23.5t-14.5 56.5z" />
<glyph unicode="&#x462;" horiz-adv-x="1318" d="M227 1253q0 33 29.5 61.5t65.5 28.5h196l21 142q5 33 32 57.5t60 24.5t54.5 -24.5t16.5 -57.5l-20 -142h360q30 0 52 -20.5t22 -50.5q0 -35 -29.5 -61.5t-66.5 -26.5h-361l-43 -312h236q191 0 298 -95t107 -271q0 -77 -17.5 -147.5t-57.5 -136.5t-99.5 -115t-150.5 -78 t-203 -29h-301q-40 0 -66 29t-20 69l152 1086h-195q-31 0 -51.5 21t-20.5 48zM516 160h236q85 0 148.5 22t99 54.5t57.5 78.5t28.5 86t6.5 86q0 226 -263 226h-235z" />
<glyph unicode="&#x463;" horiz-adv-x="1191" d="M211 1133q0 33 26 57t60 24h178l27 183q5 34 30.5 57t59.5 23t54 -23t16 -57l-27 -183h172q29 0 47 -19.5t18 -47.5q0 -33 -26 -57.5t-60 -24.5h-172l-49 -350h209q165 0 244.5 -74t79.5 -211q0 -193 -103.5 -311.5t-294.5 -118.5h-315q-33 0 -53 23.5t-15 56.5l140 985 h-181q-29 0 -47 20t-18 48zM485 137h232q107 0 164 71t57 202q0 170 -182 170h-209z" />
<glyph unicode="&#x490;" horiz-adv-x="880" d="M158 63l182 1291q5 35 35.5 63.5t68.5 28.5h474l26 186q5 33 33 57.5t61 24.5t54 -24.5t16 -57.5l-37 -266q-4 -34 -31 -57t-61 -23h-485l-172 -1223q-5 -33 -32.5 -57t-60.5 -24q-34 0 -55 24.5t-16 56.5z" />
<glyph unicode="&#x491;" horiz-adv-x="768" d="M158 63l127 900q4 30 28.5 50.5t55.5 20.5h379l28 199q4 34 31 57t61 23t53.5 -23t14.5 -57l-37 -262q-5 -34 -30.5 -57t-59.5 -23h-375l-117 -828q-4 -34 -30 -56.5t-60 -22.5t-53.5 22.5t-15.5 56.5z" />
<glyph unicode="&#x2000;" horiz-adv-x="951" />
<glyph unicode="&#x2001;" horiz-adv-x="1903" />
<glyph unicode="&#x2002;" horiz-adv-x="951" />
<glyph unicode="&#x2003;" horiz-adv-x="1903" />
<glyph unicode="&#x2004;" horiz-adv-x="634" />
<glyph unicode="&#x2005;" horiz-adv-x="475" />
<glyph unicode="&#x2006;" horiz-adv-x="317" />
<glyph unicode="&#x2007;" horiz-adv-x="317" />
<glyph unicode="&#x2008;" horiz-adv-x="237" />
<glyph unicode="&#x2009;" horiz-adv-x="380" />
<glyph unicode="&#x200a;" horiz-adv-x="105" />
<glyph unicode="&#x2010;" horiz-adv-x="817" d="M160 604q0 31 22 53.5t54 22.5h509q31 0 52.5 -22.5t21.5 -53.5t-21.5 -52.5t-52.5 -21.5h-509q-32 0 -54 21.5t-22 52.5z" />
<glyph unicode="&#x2011;" horiz-adv-x="817" d="M160 604q0 31 22 53.5t54 22.5h509q31 0 52.5 -22.5t21.5 -53.5t-21.5 -52.5t-52.5 -21.5h-509q-32 0 -54 21.5t-22 52.5z" />
<glyph unicode="&#x2012;" horiz-adv-x="817" d="M160 604q0 31 22 53.5t54 22.5h509q31 0 52.5 -22.5t21.5 -53.5t-21.5 -52.5t-52.5 -21.5h-509q-32 0 -54 21.5t-22 52.5z" />
<glyph unicode="&#x2013;" horiz-adv-x="882" d="M160 588q0 31 22 53.5t54 22.5h573q32 0 54 -22.5t22 -53.5t-22.5 -52.5t-53.5 -21.5h-573q-32 0 -54 21.5t-22 52.5z" />
<glyph unicode="&#x2014;" horiz-adv-x="1085" d="M160 588q0 31 22 53.5t54 22.5h778q32 0 54 -22.5t22 -53.5t-22.5 -52.5t-53.5 -21.5h-778q-32 0 -54 21.5t-22 52.5z" />
<glyph unicode="&#x2018;" horiz-adv-x="471" d="M285 1137q0 58 38.5 142.5t87.5 145t78 60.5q35 0 35 -29t-16.5 -56.5t-43.5 -64t-42 -73.5q38 -4 61 -32t23 -67q0 -51 -38 -87t-89 -36q-41 0 -67.5 28.5t-26.5 68.5z" />
<glyph unicode="&#x2019;" horiz-adv-x="471" d="M301 1069q0 29 16.5 56.5t43.5 64.5t42 74q-38 4 -62 32t-24 66q0 51 38 87t89 36q41 0 68 -28t27 -68q0 -58 -38.5 -142.5t-87 -145.5t-77.5 -61q-35 0 -35 29z" />
<glyph unicode="&#x201a;" horiz-adv-x="471" d="M119 -215q0 29 16.5 56.5t43.5 64.5t42 74q-38 4 -62 32t-24 66q0 50 38.5 86.5t88.5 36.5q41 0 67.5 -28.5t26.5 -68.5q0 -58 -38 -142.5t-86.5 -145t-77.5 -60.5q-35 0 -35 29z" />
<glyph unicode="&#x201c;" horiz-adv-x="755" d="M285 1137q0 58 38.5 142.5t87.5 145t78 60.5q35 0 35 -29t-16.5 -56.5t-43.5 -64t-42 -73.5q38 -4 61 -32t23 -67q0 -51 -38 -87t-89 -36q-41 0 -67.5 28.5t-26.5 68.5zM571 1137q0 59 39.5 143.5t88.5 144.5t77 60q35 0 35 -29t-16.5 -56.5t-43.5 -64t-42 -73.5 q38 -4 61 -32t23 -67q0 -51 -38 -87t-89 -36q-41 0 -68 28.5t-27 68.5z" />
<glyph unicode="&#x201d;" horiz-adv-x="755" d="M301 1069q0 29 16.5 56.5t43.5 64.5t42 74q-38 4 -62 32t-24 66q0 51 38 87t89 36q44 0 72.5 -32.5t22.5 -76.5q-9 -65 -48 -146t-84 -135.5t-71 -54.5q-35 0 -35 29zM588 1069q0 29 16.5 56.5t43.5 64.5t42 74q-38 4 -62 32t-24 66q0 50 38.5 86.5t88.5 36.5 q44 0 72 -32.5t22 -76.5q-9 -65 -47.5 -146t-83 -135.5t-71.5 -54.5q-35 0 -35 29z" />
<glyph unicode="&#x201e;" horiz-adv-x="755" d="M119 -215q0 30 16.5 57.5t43.5 64t42 73.5q-38 3 -62 31t-24 67q0 51 38 87t89 36q41 0 67.5 -28.5t26.5 -68.5q0 -59 -38.5 -143.5t-87 -144.5t-76.5 -60q-35 0 -35 29zM406 -213q0 29 16.5 56t43.5 63.5t42 73.5q-38 3 -62 31t-24 67q0 52 37.5 87.5t89.5 35.5 q41 0 67.5 -28.5t26.5 -68.5q0 -58 -38.5 -142.5t-87 -145t-77.5 -60.5q-34 0 -34 31z" />
<glyph unicode="&#x2022;" horiz-adv-x="620" d="M229 543q0 70 56 123t127 53q59 0 99 -40.5t40 -98.5q0 -72 -56 -125.5t-128 -53.5q-58 0 -98 41.5t-40 100.5z" />
<glyph unicode="&#x2026;" horiz-adv-x="1193" d="M137 78q0 50 37.5 86.5t87.5 36.5q41 0 68.5 -28.5t27.5 -70.5q0 -49 -38 -85.5t-89 -36.5q-41 0 -67.5 28.5t-26.5 69.5zM498 78q0 50 39.5 86.5t87.5 36.5q41 0 68.5 -28.5t27.5 -70.5q0 -49 -38 -85.5t-89 -36.5q-41 0 -68.5 29t-27.5 69zM862 78q0 50 37.5 86.5 t87.5 36.5q41 0 68.5 -28.5t27.5 -70.5q0 -49 -38.5 -85.5t-88.5 -36.5q-41 0 -67.5 28.5t-26.5 69.5z" />
<glyph unicode="&#x202f;" horiz-adv-x="380" />
<glyph unicode="&#x2039;" horiz-adv-x="651" d="M158 524l377 469q24 29 41 41.5t42 12.5q27 0 47.5 -19.5t20.5 -48.5q0 -28 -16 -47l-326 -404l227 -426q7 -14 7 -26q0 -36 -28 -64t-67 -28q-26 0 -40.5 12t-30.5 43z" />
<glyph unicode="&#x203a;" horiz-adv-x="651" d="M92 57q0 25 17 45l346 426l-211 404q-6 12 -6 29q0 35 28.5 60.5t61.5 25.5q26 0 39.5 -13t27.5 -41l246 -469l-391 -485q-25 -31 -42.5 -43t-43.5 -12q-33 0 -52.5 20.5t-19.5 52.5z" />
<glyph unicode="&#x205f;" horiz-adv-x="475" />
<glyph unicode="&#x20ac;" d="M102 580q0 34 29 59t64 25h94l14 114h-94q-31 0 -50.5 19.5t-19.5 48.5q0 34 28.5 59t63.5 25h95l10 74q30 216 148 338t317 122q135 0 236.5 -50t101.5 -118q0 -32 -25 -55.5t-59 -23.5q-13 0 -21.5 3t-24 14.5t-24.5 16.5q-82 64 -197 64q-133 0 -200 -78.5t-88 -232.5 l-11 -74h373q28 0 49 -19.5t21 -48.5q0 -35 -27.5 -59.5t-64.5 -24.5h-373l-14 -114h290q28 0 49 -19.5t21 -48.5q0 -35 -27.5 -59.5t-64.5 -24.5h-291l-10 -70q-23 -152 23 -231.5t180 -79.5q112 0 213 64q11 6 24 13.5t19.5 11t16 6.5t19.5 3q29 0 46.5 -18t17.5 -45 q0 -49 -56.5 -91.5t-145.5 -67.5t-185 -25q-199 0 -283.5 122.5t-52.5 337.5l10 70h-94q-31 0 -50.5 19.5t-19.5 48.5z" />
<glyph unicode="&#x2122;" horiz-adv-x="1583" d="M215 1382q0 28 21 48t49 20h510q23 0 38 -15t15 -38q0 -27 -21 -46.5t-49 -19.5h-194l-99 -700q-3 -25 -23 -42.5t-46 -17.5t-41.5 17.5t-12.5 42.5l99 700h-193q-23 0 -38 14t-15 37zM846 629l108 768q3 28 23.5 45.5t48.5 17.5q42 0 55 -37l172 -493l310 493 q22 37 67 37q25 0 42 -19t14 -44l-109 -768q-3 -23 -24 -40.5t-44 -17.5q-24 0 -39 17t-12 41l78 549l-244 -387q-24 -37 -63 -37q-42 0 -55 37l-134 387l-77 -549q-3 -23 -24 -40.5t-44 -17.5q-24 0 -38 17t-11 41z" />
<glyph unicode="&#x25fc;" horiz-adv-x="1044" d="M0 0v1044h1044v-1044h-1044z" />
</font>
</defs>
</svg>
